<mxfile host="app.diagrams.net" modified="2021-05-25T10:07:48.806Z" agent="5.0 (Windows NT 10.0; Win64; x64) AppleWebKit/537.36 (KHTML, like Gecko) Chrome/90.0.4430.212 Safari/537.36" etag="RoStWWwmMKgWUH7FIhcO" version="14.7.0" type="github">
  <diagram id="PERFYKWWDiuhqixZciVr" name="Page-1">
    <mxGraphModel dx="2017" dy="1412" grid="1" gridSize="10" guides="1" tooltips="1" connect="1" arrows="1" fold="1" page="1" pageScale="1" pageWidth="827" pageHeight="1169" math="0" shadow="0">
      <root>
        <mxCell id="YpG11p54W12MGPFQJL24-0" />
        <mxCell id="YpG11p54W12MGPFQJL24-1" parent="YpG11p54W12MGPFQJL24-0" />
        <mxCell id="0mOlbP7xLzRMstRWg_M5-361" value="" style="rounded=0;whiteSpace=wrap;html=1;labelBackgroundColor=none;fontSize=12;strokeWidth=1;align=center;fontColor=#333333;dashed=1;fillColor=none;strokeColor=#007FFF;" parent="YpG11p54W12MGPFQJL24-1" vertex="1">
          <mxGeometry x="3030" y="750" width="540" height="310" as="geometry" />
        </mxCell>
        <mxCell id="0mOlbP7xLzRMstRWg_M5-358" value="" style="rounded=0;whiteSpace=wrap;html=1;labelBackgroundColor=none;fontSize=12;strokeWidth=1;align=center;fontColor=#333333;dashed=1;fillColor=none;strokeColor=#007FFF;" parent="YpG11p54W12MGPFQJL24-1" vertex="1">
          <mxGeometry x="3150" y="190" width="620" height="380" as="geometry" />
        </mxCell>
        <mxCell id="0mOlbP7xLzRMstRWg_M5-356" value="" style="rounded=0;whiteSpace=wrap;html=1;labelBackgroundColor=none;fontSize=12;strokeWidth=1;align=center;fontColor=#333333;dashed=1;fillColor=none;strokeColor=#007FFF;" parent="YpG11p54W12MGPFQJL24-1" vertex="1">
          <mxGeometry x="3830" y="190" width="540" height="340" as="geometry" />
        </mxCell>
        <mxCell id="0mOlbP7xLzRMstRWg_M5-291" value="FTBiometricDatabase" style="swimlane;fontStyle=3;align=center;verticalAlign=top;childLayout=stackLayout;horizontal=1;startSize=26;horizontalStack=0;resizeParent=1;resizeParentMax=0;resizeLast=0;collapsible=1;marginBottom=0;labelBackgroundColor=none;fontSize=12;strokeWidth=1;fillColor=none;" parent="YpG11p54W12MGPFQJL24-1" vertex="1">
          <mxGeometry x="3840" y="200" width="280" height="104" as="geometry" />
        </mxCell>
        <mxCell id="0mOlbP7xLzRMstRWg_M5-292" value="+ get(): FTBiometricDatabase" style="text;strokeColor=none;fillColor=none;align=left;verticalAlign=top;spacingLeft=4;spacingRight=4;overflow=hidden;rotatable=0;points=[[0,0.5],[1,0.5]];portConstraint=eastwest;labelBackgroundColor=none;fontSize=12;fontStyle=4" parent="0mOlbP7xLzRMstRWg_M5-291" vertex="1">
          <mxGeometry y="26" width="280" height="26" as="geometry" />
        </mxCell>
        <mxCell id="0mOlbP7xLzRMstRWg_M5-296" value="+ close(): Unit" style="text;strokeColor=none;fillColor=none;align=left;verticalAlign=top;spacingLeft=4;spacingRight=4;overflow=hidden;rotatable=0;points=[[0,0.5],[1,0.5]];portConstraint=eastwest;labelBackgroundColor=none;fontSize=12;fontStyle=4" parent="0mOlbP7xLzRMstRWg_M5-291" vertex="1">
          <mxGeometry y="52" width="280" height="26" as="geometry" />
        </mxCell>
        <mxCell id="0mOlbP7xLzRMstRWg_M5-293" value="+ biometricRecordDao(): BiometricRecordDao" style="text;strokeColor=none;fillColor=none;align=left;verticalAlign=top;spacingLeft=4;spacingRight=4;overflow=hidden;rotatable=0;points=[[0,0.5],[1,0.5]];portConstraint=eastwest;labelBackgroundColor=none;fontSize=12;fontStyle=2" parent="0mOlbP7xLzRMstRWg_M5-291" vertex="1">
          <mxGeometry y="78" width="280" height="26" as="geometry" />
        </mxCell>
        <mxCell id="0mOlbP7xLzRMstRWg_M5-183" value="关闭业务功能 &amp; 注销业务场景流程" style="swimlane;horizontal=0;labelBackgroundColor=none;fontSize=12;strokeWidth=1;fillColor=#ffffff;align=center;" parent="YpG11p54W12MGPFQJL24-1" vertex="1">
          <mxGeometry x="1640" y="1700" width="820" height="400" as="geometry" />
        </mxCell>
        <mxCell id="0mOlbP7xLzRMstRWg_M5-195" value="par" style="shape=umlFrame;whiteSpace=wrap;html=1;labelBackgroundColor=none;fontSize=12;strokeWidth=1;fillColor=#ffffff;align=center;width=60;height=20;" parent="0mOlbP7xLzRMstRWg_M5-183" vertex="1">
          <mxGeometry x="80" y="140" width="700" height="200" as="geometry" />
        </mxCell>
        <mxCell id="0mOlbP7xLzRMstRWg_M5-182" value="使用业务功能 &amp; 验证业务场景流程" style="swimlane;horizontal=0;labelBackgroundColor=none;fontSize=12;strokeWidth=1;fillColor=#ffffff;align=center;" parent="YpG11p54W12MGPFQJL24-1" vertex="1">
          <mxGeometry x="1640" y="1240" width="820" height="460" as="geometry" />
        </mxCell>
        <mxCell id="0mOlbP7xLzRMstRWg_M5-13" value="" style="rounded=0;whiteSpace=wrap;html=1;align=center;fillColor=#b1ddf0;strokeColor=#10739e;" parent="YpG11p54W12MGPFQJL24-1" vertex="1">
          <mxGeometry x="840" width="340" height="320" as="geometry" />
        </mxCell>
        <mxCell id="0mOlbP7xLzRMstRWg_M5-11" value="" style="rounded=0;whiteSpace=wrap;html=1;align=center;fillColor=#d5e8d4;strokeColor=#82b366;" parent="YpG11p54W12MGPFQJL24-1" vertex="1">
          <mxGeometry x="860" y="220" width="300" height="80" as="geometry" />
        </mxCell>
        <mxCell id="0mOlbP7xLzRMstRWg_M5-8" value="" style="rounded=0;whiteSpace=wrap;html=1;align=center;labelBackgroundColor=none;fillColor=#fff2cc;strokeColor=#d6b656;" parent="YpG11p54W12MGPFQJL24-1" vertex="1">
          <mxGeometry x="860" y="40" width="300" height="120" as="geometry" />
        </mxCell>
        <mxCell id="0mOlbP7xLzRMstRWg_M5-20" style="edgeStyle=orthogonalEdgeStyle;rounded=0;orthogonalLoop=1;jettySize=auto;html=1;exitX=0.5;exitY=1;exitDx=0;exitDy=0;exitPerimeter=0;entryX=0.5;entryY=0;entryDx=0;entryDy=0;entryPerimeter=0;fontSize=16;labelBackgroundColor=none;" parent="YpG11p54W12MGPFQJL24-1" source="FxfO5eEo2pZkEUAX_uts-19" target="0mOlbP7xLzRMstRWg_M5-19" edge="1">
          <mxGeometry relative="1" as="geometry" />
        </mxCell>
        <mxCell id="FxfO5eEo2pZkEUAX_uts-19" value="指纹支持能力确认" style="strokeWidth=2;html=1;shape=mxgraph.flowchart.start_2;whiteSpace=wrap;align=center;fontSize=16;labelBackgroundColor=none;fillColor=none;" parent="YpG11p54W12MGPFQJL24-1" vertex="1">
          <mxGeometry x="2540" y="40" width="80" height="80" as="geometry" />
        </mxCell>
        <mxCell id="0mOlbP7xLzRMstRWg_M5-2" value="Application" style="rounded=0;whiteSpace=wrap;html=1;align=center;" parent="YpG11p54W12MGPFQJL24-1" vertex="1">
          <mxGeometry x="880" y="80" width="260" height="20" as="geometry" />
        </mxCell>
        <mxCell id="0mOlbP7xLzRMstRWg_M5-3" value="AndroidKeyStore" style="rounded=0;whiteSpace=wrap;html=1;align=center;" parent="YpG11p54W12MGPFQJL24-1" vertex="1">
          <mxGeometry x="1020" y="120" width="120" height="20" as="geometry" />
        </mxCell>
        <mxCell id="0mOlbP7xLzRMstRWg_M5-4" value="BiometricManager" style="rounded=0;whiteSpace=wrap;html=1;align=center;" parent="YpG11p54W12MGPFQJL24-1" vertex="1">
          <mxGeometry x="880" y="120" width="120" height="20" as="geometry" />
        </mxCell>
        <mxCell id="0mOlbP7xLzRMstRWg_M5-6" value="ASK" style="rounded=0;whiteSpace=wrap;html=1;align=center;" parent="YpG11p54W12MGPFQJL24-1" vertex="1">
          <mxGeometry x="880" y="260" width="120" height="20" as="geometry" />
        </mxCell>
        <mxCell id="0mOlbP7xLzRMstRWg_M5-7" value="AuthKey" style="rounded=0;whiteSpace=wrap;html=1;align=center;" parent="YpG11p54W12MGPFQJL24-1" vertex="1">
          <mxGeometry x="1020" y="260" width="120" height="20" as="geometry" />
        </mxCell>
        <mxCell id="0mOlbP7xLzRMstRWg_M5-9" value="REE" style="text;html=1;strokeColor=none;fillColor=none;align=center;verticalAlign=middle;whiteSpace=wrap;rounded=0;fontStyle=1" parent="YpG11p54W12MGPFQJL24-1" vertex="1">
          <mxGeometry x="860" y="40" width="40" height="20" as="geometry" />
        </mxCell>
        <mxCell id="0mOlbP7xLzRMstRWg_M5-10" value="HAL" style="rounded=0;whiteSpace=wrap;html=1;align=center;fillColor=#ffe6cc;strokeColor=#d79b00;" parent="YpG11p54W12MGPFQJL24-1" vertex="1">
          <mxGeometry x="860" y="180" width="300" height="20" as="geometry" />
        </mxCell>
        <mxCell id="0mOlbP7xLzRMstRWg_M5-12" value="TEE" style="text;html=1;strokeColor=none;fillColor=none;align=center;verticalAlign=middle;whiteSpace=wrap;rounded=0;fontStyle=1" parent="YpG11p54W12MGPFQJL24-1" vertex="1">
          <mxGeometry x="860" y="220" width="40" height="20" as="geometry" />
        </mxCell>
        <mxCell id="0mOlbP7xLzRMstRWg_M5-14" value="&lt;font style=&quot;font-size: 16px&quot;&gt;Client&lt;/font&gt;" style="text;html=1;strokeColor=none;fillColor=none;align=center;verticalAlign=middle;whiteSpace=wrap;rounded=0;fontStyle=1" parent="YpG11p54W12MGPFQJL24-1" vertex="1">
          <mxGeometry x="840" width="340" height="20" as="geometry" />
        </mxCell>
        <mxCell id="0mOlbP7xLzRMstRWg_M5-15" value="" style="rounded=0;whiteSpace=wrap;html=1;align=center;fillColor=#fad7ac;strokeColor=#b46504;" parent="YpG11p54W12MGPFQJL24-1" vertex="1">
          <mxGeometry x="1200" width="160" height="320" as="geometry" />
        </mxCell>
        <mxCell id="0mOlbP7xLzRMstRWg_M5-16" value="&lt;font style=&quot;font-size: 16px&quot;&gt;Server&lt;/font&gt;" style="text;html=1;strokeColor=none;fillColor=none;align=center;verticalAlign=middle;whiteSpace=wrap;rounded=0;fontStyle=1" parent="YpG11p54W12MGPFQJL24-1" vertex="1">
          <mxGeometry x="1200" width="160" height="20" as="geometry" />
        </mxCell>
        <mxCell id="0mOlbP7xLzRMstRWg_M5-17" value="ASK_Pub" style="rounded=0;whiteSpace=wrap;html=1;align=center;" parent="YpG11p54W12MGPFQJL24-1" vertex="1">
          <mxGeometry x="1220" y="40" width="120" height="20" as="geometry" />
        </mxCell>
        <mxCell id="0mOlbP7xLzRMstRWg_M5-18" value="AuthKey_Pub" style="rounded=0;whiteSpace=wrap;html=1;align=center;" parent="YpG11p54W12MGPFQJL24-1" vertex="1">
          <mxGeometry x="1220" y="80" width="120" height="20" as="geometry" />
        </mxCell>
        <mxCell id="0mOlbP7xLzRMstRWg_M5-22" value="Y" style="edgeStyle=orthogonalEdgeStyle;rounded=0;orthogonalLoop=1;jettySize=auto;html=1;exitX=0.5;exitY=1;exitDx=0;exitDy=0;exitPerimeter=0;entryX=0.5;entryY=0;entryDx=0;entryDy=0;entryPerimeter=0;labelBackgroundColor=#ffffff;fontSize=16;labelBorderColor=none;" parent="YpG11p54W12MGPFQJL24-1" source="0mOlbP7xLzRMstRWg_M5-19" target="0mOlbP7xLzRMstRWg_M5-21" edge="1">
          <mxGeometry relative="1" as="geometry" />
        </mxCell>
        <mxCell id="0mOlbP7xLzRMstRWg_M5-40" value="N" style="edgeStyle=orthogonalEdgeStyle;rounded=0;orthogonalLoop=1;jettySize=auto;html=1;exitX=1;exitY=0.5;exitDx=0;exitDy=0;exitPerimeter=0;labelBackgroundColor=#ffffff;fontSize=16;" parent="YpG11p54W12MGPFQJL24-1" source="0mOlbP7xLzRMstRWg_M5-19" target="0mOlbP7xLzRMstRWg_M5-36" edge="1">
          <mxGeometry x="-0.873" relative="1" as="geometry">
            <mxPoint as="offset" />
          </mxGeometry>
        </mxCell>
        <mxCell id="0mOlbP7xLzRMstRWg_M5-19" value="Android API &amp;gt;= 24?" style="strokeWidth=2;html=1;shape=mxgraph.flowchart.decision;whiteSpace=wrap;labelBackgroundColor=none;fontSize=16;align=center;fillColor=none;" parent="YpG11p54W12MGPFQJL24-1" vertex="1">
          <mxGeometry x="2480" y="180" width="200" height="80" as="geometry" />
        </mxCell>
        <mxCell id="0mOlbP7xLzRMstRWg_M5-24" value="N" style="edgeStyle=orthogonalEdgeStyle;rounded=0;orthogonalLoop=1;jettySize=auto;html=1;exitX=0.5;exitY=1;exitDx=0;exitDy=0;exitPerimeter=0;entryX=0.5;entryY=0;entryDx=0;entryDy=0;entryPerimeter=0;labelBackgroundColor=#ffffff;fontSize=16;" parent="YpG11p54W12MGPFQJL24-1" source="0mOlbP7xLzRMstRWg_M5-21" target="0mOlbP7xLzRMstRWg_M5-23" edge="1">
          <mxGeometry relative="1" as="geometry" />
        </mxCell>
        <mxCell id="0mOlbP7xLzRMstRWg_M5-39" value="Y" style="edgeStyle=orthogonalEdgeStyle;rounded=0;orthogonalLoop=1;jettySize=auto;html=1;exitX=1;exitY=0.5;exitDx=0;exitDy=0;exitPerimeter=0;labelBackgroundColor=#ffffff;fontSize=16;" parent="YpG11p54W12MGPFQJL24-1" source="0mOlbP7xLzRMstRWg_M5-21" target="0mOlbP7xLzRMstRWg_M5-36" edge="1">
          <mxGeometry x="-0.8367" relative="1" as="geometry">
            <mxPoint as="offset" />
          </mxGeometry>
        </mxCell>
        <mxCell id="0mOlbP7xLzRMstRWg_M5-21" value="设备已ROOT？" style="strokeWidth=2;html=1;shape=mxgraph.flowchart.decision;whiteSpace=wrap;labelBackgroundColor=none;fontSize=16;align=center;fillColor=none;" parent="YpG11p54W12MGPFQJL24-1" vertex="1">
          <mxGeometry x="2480" y="320" width="200" height="80" as="geometry" />
        </mxCell>
        <mxCell id="0mOlbP7xLzRMstRWg_M5-27" value="Y" style="edgeStyle=orthogonalEdgeStyle;rounded=0;orthogonalLoop=1;jettySize=auto;html=1;exitX=0.5;exitY=1;exitDx=0;exitDy=0;exitPerimeter=0;labelBackgroundColor=#ffffff;fontSize=16;" parent="YpG11p54W12MGPFQJL24-1" source="0mOlbP7xLzRMstRWg_M5-23" target="0mOlbP7xLzRMstRWg_M5-31" edge="1">
          <mxGeometry relative="1" as="geometry">
            <mxPoint x="2580" y="600" as="targetPoint" />
            <mxPoint as="offset" />
          </mxGeometry>
        </mxCell>
        <mxCell id="0mOlbP7xLzRMstRWg_M5-38" value="N" style="edgeStyle=orthogonalEdgeStyle;rounded=0;orthogonalLoop=1;jettySize=auto;html=1;exitX=1;exitY=0.5;exitDx=0;exitDy=0;exitPerimeter=0;labelBackgroundColor=#ffffff;fontSize=16;" parent="YpG11p54W12MGPFQJL24-1" source="0mOlbP7xLzRMstRWg_M5-23" target="0mOlbP7xLzRMstRWg_M5-36" edge="1">
          <mxGeometry x="-0.7714" relative="1" as="geometry">
            <mxPoint as="offset" />
          </mxGeometry>
        </mxCell>
        <mxCell id="0mOlbP7xLzRMstRWg_M5-23" value="客户端Soter API&lt;br&gt;是否支持？" style="strokeWidth=2;html=1;shape=mxgraph.flowchart.decision;whiteSpace=wrap;labelBackgroundColor=none;fontSize=16;align=center;fillColor=none;" parent="YpG11p54W12MGPFQJL24-1" vertex="1">
          <mxGeometry x="2480" y="460" width="200" height="80" as="geometry" />
        </mxCell>
        <mxCell id="0mOlbP7xLzRMstRWg_M5-35" value="Y" style="edgeStyle=orthogonalEdgeStyle;rounded=0;orthogonalLoop=1;jettySize=auto;html=1;exitX=0.5;exitY=1;exitDx=0;exitDy=0;exitPerimeter=0;labelBackgroundColor=#ffffff;fontSize=16;" parent="YpG11p54W12MGPFQJL24-1" source="0mOlbP7xLzRMstRWg_M5-31" target="0mOlbP7xLzRMstRWg_M5-34" edge="1">
          <mxGeometry relative="1" as="geometry" />
        </mxCell>
        <mxCell id="0mOlbP7xLzRMstRWg_M5-37" value="N" style="edgeStyle=orthogonalEdgeStyle;rounded=0;orthogonalLoop=1;jettySize=auto;html=1;exitX=1;exitY=0.5;exitDx=0;exitDy=0;exitPerimeter=0;entryX=0.5;entryY=0;entryDx=0;entryDy=0;entryPerimeter=0;labelBackgroundColor=#ffffff;fontSize=16;" parent="YpG11p54W12MGPFQJL24-1" source="0mOlbP7xLzRMstRWg_M5-31" target="0mOlbP7xLzRMstRWg_M5-36" edge="1">
          <mxGeometry x="-0.619" relative="1" as="geometry">
            <mxPoint as="offset" />
          </mxGeometry>
        </mxCell>
        <mxCell id="0mOlbP7xLzRMstRWg_M5-31" value="有指纹硬件且&lt;br&gt;有注册指纹？" style="strokeWidth=2;html=1;shape=mxgraph.flowchart.decision;whiteSpace=wrap;labelBackgroundColor=none;fontSize=16;align=center;fillColor=none;" parent="YpG11p54W12MGPFQJL24-1" vertex="1">
          <mxGeometry x="2480" y="600" width="200" height="80" as="geometry" />
        </mxCell>
        <mxCell id="0mOlbP7xLzRMstRWg_M5-34" value="指纹&lt;br&gt;可用" style="strokeWidth=2;html=1;shape=mxgraph.flowchart.terminator;whiteSpace=wrap;labelBackgroundColor=none;fontSize=16;fillColor=none;align=center;" parent="YpG11p54W12MGPFQJL24-1" vertex="1">
          <mxGeometry x="2540" y="740" width="80" height="80" as="geometry" />
        </mxCell>
        <mxCell id="0mOlbP7xLzRMstRWg_M5-36" value="指纹&lt;br&gt;不可用" style="strokeWidth=2;html=1;shape=mxgraph.flowchart.terminator;whiteSpace=wrap;labelBackgroundColor=none;fontSize=16;fillColor=none;align=center;" parent="YpG11p54W12MGPFQJL24-1" vertex="1">
          <mxGeometry x="2740" y="740" width="80" height="80" as="geometry" />
        </mxCell>
        <mxCell id="0mOlbP7xLzRMstRWg_M5-68" value="" style="shape=umlLifeline;participant=umlActor;perimeter=lifelinePerimeter;whiteSpace=wrap;html=1;container=1;collapsible=0;recursiveResize=0;verticalAlign=top;spacingTop=36;outlineConnect=0;labelBackgroundColor=none;fontSize=16;strokeWidth=1;fillColor=none;align=center;" parent="YpG11p54W12MGPFQJL24-1" vertex="1">
          <mxGeometry x="1670" y="40" width="20" height="2060" as="geometry" />
        </mxCell>
        <mxCell id="0mOlbP7xLzRMstRWg_M5-69" value="客户端&lt;br&gt;业务侧" style="shape=umlLifeline;perimeter=lifelinePerimeter;whiteSpace=wrap;html=1;container=1;collapsible=0;recursiveResize=0;outlineConnect=0;labelBackgroundColor=none;fontSize=12;strokeWidth=1;align=center;" parent="YpG11p54W12MGPFQJL24-1" vertex="1">
          <mxGeometry x="1770" y="40" width="80" height="2060" as="geometry" />
        </mxCell>
        <mxCell id="0mOlbP7xLzRMstRWg_M5-101" value="" style="html=1;points=[];perimeter=orthogonalPerimeter;labelBackgroundColor=none;fontSize=12;strokeWidth=1;fillColor=#ffffff;align=center;" parent="0mOlbP7xLzRMstRWg_M5-69" vertex="1">
          <mxGeometry x="35" y="480" width="10" height="700" as="geometry" />
        </mxCell>
        <mxCell id="0mOlbP7xLzRMstRWg_M5-103" value="开启结果" style="html=1;verticalAlign=bottom;endArrow=open;dashed=1;endSize=8;exitX=0;exitY=0.95;labelBackgroundColor=#ffffff;fontSize=12;" parent="0mOlbP7xLzRMstRWg_M5-69" edge="1">
          <mxGeometry relative="1" as="geometry">
            <mxPoint x="-89.90000000000009" y="1169.9999999999995" as="targetPoint" />
            <mxPoint x="34.99999999999977" y="1169.9999999999995" as="sourcePoint" />
          </mxGeometry>
        </mxCell>
        <mxCell id="0mOlbP7xLzRMstRWg_M5-140" value="" style="html=1;points=[];perimeter=orthogonalPerimeter;labelBackgroundColor=none;fontSize=12;strokeWidth=1;fillColor=#ffffff;align=center;" parent="0mOlbP7xLzRMstRWg_M5-69" vertex="1">
          <mxGeometry x="35" y="1220" width="10" height="420" as="geometry" />
        </mxCell>
        <mxCell id="0mOlbP7xLzRMstRWg_M5-162" value="" style="html=1;points=[];perimeter=orthogonalPerimeter;labelBackgroundColor=none;fontSize=12;strokeWidth=1;fillColor=#ffffff;align=center;" parent="0mOlbP7xLzRMstRWg_M5-69" vertex="1">
          <mxGeometry x="35" y="1680" width="10" height="360" as="geometry" />
        </mxCell>
        <mxCell id="0mOlbP7xLzRMstRWg_M5-193" value="" style="html=1;points=[];perimeter=orthogonalPerimeter;labelBackgroundColor=none;fontSize=12;strokeWidth=1;fillColor=#ffffff;align=center;" parent="0mOlbP7xLzRMstRWg_M5-69" vertex="1">
          <mxGeometry x="40" y="1960" width="10" height="20" as="geometry" />
        </mxCell>
        <mxCell id="0mOlbP7xLzRMstRWg_M5-194" value="记录功能关闭&lt;br&gt;清除&lt;b&gt;&lt;font color=&quot;#ff0000&quot;&gt;生物票据&lt;/font&gt;&lt;/b&gt;" style="edgeStyle=orthogonalEdgeStyle;html=1;align=left;spacingLeft=2;endArrow=block;rounded=0;entryX=1;entryY=0;labelBackgroundColor=#ffffff;fontSize=12;" parent="0mOlbP7xLzRMstRWg_M5-69" target="0mOlbP7xLzRMstRWg_M5-193" edge="1">
          <mxGeometry relative="1" as="geometry">
            <mxPoint x="45" y="1940" as="sourcePoint" />
            <Array as="points">
              <mxPoint x="75" y="1940" />
            </Array>
          </mxGeometry>
        </mxCell>
        <mxCell id="0mOlbP7xLzRMstRWg_M5-70" value="客户端&lt;br&gt;基础侧" style="shape=umlLifeline;perimeter=lifelinePerimeter;whiteSpace=wrap;html=1;container=1;collapsible=0;recursiveResize=0;outlineConnect=0;labelBackgroundColor=none;fontSize=12;strokeWidth=1;align=center;" parent="YpG11p54W12MGPFQJL24-1" vertex="1">
          <mxGeometry x="1930" y="40" width="80" height="2060" as="geometry" />
        </mxCell>
        <mxCell id="0mOlbP7xLzRMstRWg_M5-73" value="" style="html=1;points=[];perimeter=orthogonalPerimeter;labelBackgroundColor=none;fontSize=12;strokeWidth=1;align=center;" parent="0mOlbP7xLzRMstRWg_M5-70" vertex="1">
          <mxGeometry x="35" y="80" width="10" height="360" as="geometry" />
        </mxCell>
        <mxCell id="0mOlbP7xLzRMstRWg_M5-87" value="" style="html=1;points=[];perimeter=orthogonalPerimeter;labelBackgroundColor=none;fontSize=12;strokeWidth=1;fillColor=#ffffff;align=center;" parent="0mOlbP7xLzRMstRWg_M5-70" vertex="1">
          <mxGeometry x="40" y="180" width="10" height="20" as="geometry" />
        </mxCell>
        <mxCell id="0mOlbP7xLzRMstRWg_M5-88" value="生成&lt;b&gt;&lt;font color=&quot;#007fff&quot;&gt;ASK&lt;/font&gt;&lt;/b&gt;" style="edgeStyle=orthogonalEdgeStyle;html=1;align=left;spacingLeft=2;endArrow=block;rounded=0;entryX=1;entryY=0;labelBackgroundColor=#ffffff;fontSize=12;" parent="0mOlbP7xLzRMstRWg_M5-70" target="0mOlbP7xLzRMstRWg_M5-87" edge="1">
          <mxGeometry relative="1" as="geometry">
            <mxPoint x="45" y="160" as="sourcePoint" />
            <Array as="points">
              <mxPoint x="75" y="160" />
            </Array>
          </mxGeometry>
        </mxCell>
        <mxCell id="0mOlbP7xLzRMstRWg_M5-104" value="" style="html=1;points=[];perimeter=orthogonalPerimeter;labelBackgroundColor=none;fontSize=12;strokeWidth=1;fillColor=#ffffff;align=center;" parent="0mOlbP7xLzRMstRWg_M5-70" vertex="1">
          <mxGeometry x="35" y="500" width="10" height="400" as="geometry" />
        </mxCell>
        <mxCell id="0mOlbP7xLzRMstRWg_M5-107" value="" style="html=1;points=[];perimeter=orthogonalPerimeter;labelBackgroundColor=none;fontSize=12;strokeWidth=1;fillColor=#ffffff;align=center;" parent="0mOlbP7xLzRMstRWg_M5-70" vertex="1">
          <mxGeometry x="40" y="540" width="10" height="20" as="geometry" />
        </mxCell>
        <mxCell id="0mOlbP7xLzRMstRWg_M5-108" value="支持能力确认&lt;span style=&quot;font-size: 10px&quot;&gt;*&lt;/span&gt;&lt;br&gt;&lt;b style=&quot;color: rgb(0 , 127 , 255)&quot;&gt;ASK&lt;/b&gt;记录确认" style="edgeStyle=orthogonalEdgeStyle;html=1;align=left;spacingLeft=2;endArrow=block;rounded=0;entryX=1;entryY=0;labelBackgroundColor=#ffffff;fontSize=12;" parent="0mOlbP7xLzRMstRWg_M5-70" target="0mOlbP7xLzRMstRWg_M5-107" edge="1">
          <mxGeometry relative="1" as="geometry">
            <mxPoint x="45" y="520" as="sourcePoint" />
            <Array as="points">
              <mxPoint x="75" y="520" />
            </Array>
          </mxGeometry>
        </mxCell>
        <mxCell id="0mOlbP7xLzRMstRWg_M5-109" value="" style="html=1;points=[];perimeter=orthogonalPerimeter;labelBackgroundColor=none;fontSize=12;strokeWidth=1;fillColor=#ffffff;align=center;" parent="0mOlbP7xLzRMstRWg_M5-70" vertex="1">
          <mxGeometry x="40" y="600" width="10" height="20" as="geometry" />
        </mxCell>
        <mxCell id="0mOlbP7xLzRMstRWg_M5-110" value="生成&lt;b&gt;&lt;font color=&quot;#00cc00&quot;&gt;AuthKey&lt;/font&gt;&lt;/b&gt;" style="edgeStyle=orthogonalEdgeStyle;html=1;align=left;spacingLeft=2;endArrow=block;rounded=0;entryX=1;entryY=0;labelBackgroundColor=#ffffff;fontSize=12;" parent="0mOlbP7xLzRMstRWg_M5-70" target="0mOlbP7xLzRMstRWg_M5-109" edge="1">
          <mxGeometry relative="1" as="geometry">
            <mxPoint x="45" y="580" as="sourcePoint" />
            <Array as="points">
              <mxPoint x="75" y="580" />
            </Array>
          </mxGeometry>
        </mxCell>
        <mxCell id="0mOlbP7xLzRMstRWg_M5-111" value="" style="html=1;points=[];perimeter=orthogonalPerimeter;labelBackgroundColor=none;fontSize=12;strokeWidth=1;fillColor=#ffffff;align=center;" parent="0mOlbP7xLzRMstRWg_M5-70" vertex="1">
          <mxGeometry x="40" y="700" width="10" height="60" as="geometry" />
        </mxCell>
        <mxCell id="0mOlbP7xLzRMstRWg_M5-112" value="调起指纹验证" style="edgeStyle=orthogonalEdgeStyle;html=1;align=left;spacingLeft=2;endArrow=block;rounded=0;entryX=1;entryY=0;labelBackgroundColor=#ffffff;fontSize=12;" parent="0mOlbP7xLzRMstRWg_M5-70" target="0mOlbP7xLzRMstRWg_M5-111" edge="1">
          <mxGeometry relative="1" as="geometry">
            <mxPoint x="45" y="680" as="sourcePoint" />
            <Array as="points">
              <mxPoint x="75" y="680" />
            </Array>
          </mxGeometry>
        </mxCell>
        <mxCell id="0mOlbP7xLzRMstRWg_M5-119" value="" style="html=1;points=[];perimeter=orthogonalPerimeter;labelBackgroundColor=none;fontSize=12;strokeWidth=1;fillColor=#ffffff;align=center;" parent="0mOlbP7xLzRMstRWg_M5-70" vertex="1">
          <mxGeometry x="40" y="800" width="10" height="20" as="geometry" />
        </mxCell>
        <mxCell id="0mOlbP7xLzRMstRWg_M5-120" value="获取&lt;b&gt;生物信息&amp;amp;签名&lt;/b&gt;" style="edgeStyle=orthogonalEdgeStyle;html=1;align=left;spacingLeft=2;endArrow=block;rounded=0;entryX=1;entryY=0;labelBackgroundColor=#ffffff;fontSize=12;" parent="0mOlbP7xLzRMstRWg_M5-70" target="0mOlbP7xLzRMstRWg_M5-119" edge="1">
          <mxGeometry relative="1" as="geometry">
            <mxPoint x="45" y="780" as="sourcePoint" />
            <Array as="points">
              <mxPoint x="75" y="780" />
            </Array>
          </mxGeometry>
        </mxCell>
        <mxCell id="0mOlbP7xLzRMstRWg_M5-143" value="" style="html=1;points=[];perimeter=orthogonalPerimeter;labelBackgroundColor=none;fontSize=12;strokeWidth=1;fillColor=#ffffff;align=center;" parent="0mOlbP7xLzRMstRWg_M5-70" vertex="1">
          <mxGeometry x="35" y="1240" width="10" height="280" as="geometry" />
        </mxCell>
        <mxCell id="0mOlbP7xLzRMstRWg_M5-146" value="" style="html=1;points=[];perimeter=orthogonalPerimeter;labelBackgroundColor=none;fontSize=12;strokeWidth=1;fillColor=#ffffff;align=center;" parent="0mOlbP7xLzRMstRWg_M5-70" vertex="1">
          <mxGeometry x="40" y="1280" width="10" height="20" as="geometry" />
        </mxCell>
        <mxCell id="0mOlbP7xLzRMstRWg_M5-147" value="支持能力确认&lt;span style=&quot;font-size: 10px&quot;&gt;*&lt;/span&gt;&lt;br&gt;&lt;b&gt;&lt;font color=&quot;#00cc00&quot;&gt;AuthKey&lt;/font&gt;&lt;/b&gt;确认" style="edgeStyle=orthogonalEdgeStyle;html=1;align=left;spacingLeft=2;endArrow=block;rounded=0;entryX=1;entryY=0;labelBackgroundColor=#ffffff;fontSize=12;" parent="0mOlbP7xLzRMstRWg_M5-70" target="0mOlbP7xLzRMstRWg_M5-146" edge="1">
          <mxGeometry relative="1" as="geometry">
            <mxPoint x="45" y="1260" as="sourcePoint" />
            <Array as="points">
              <mxPoint x="75" y="1260" />
            </Array>
          </mxGeometry>
        </mxCell>
        <mxCell id="0mOlbP7xLzRMstRWg_M5-155" value="" style="html=1;points=[];perimeter=orthogonalPerimeter;labelBackgroundColor=none;fontSize=12;strokeWidth=1;fillColor=#ffffff;align=center;" parent="0mOlbP7xLzRMstRWg_M5-70" vertex="1">
          <mxGeometry x="40" y="1480" width="10" height="20" as="geometry" />
        </mxCell>
        <mxCell id="0mOlbP7xLzRMstRWg_M5-156" value="获取&lt;b&gt;生物信息&amp;amp;签名&lt;/b&gt;" style="edgeStyle=orthogonalEdgeStyle;html=1;align=left;spacingLeft=2;endArrow=block;rounded=0;entryX=1;entryY=0;labelBackgroundColor=#ffffff;fontSize=12;" parent="0mOlbP7xLzRMstRWg_M5-70" target="0mOlbP7xLzRMstRWg_M5-155" edge="1">
          <mxGeometry relative="1" as="geometry">
            <mxPoint x="45" y="1460" as="sourcePoint" />
            <Array as="points">
              <mxPoint x="75" y="1460" />
            </Array>
          </mxGeometry>
        </mxCell>
        <mxCell id="0mOlbP7xLzRMstRWg_M5-165" value="" style="html=1;points=[];perimeter=orthogonalPerimeter;labelBackgroundColor=none;fontSize=12;strokeWidth=1;fillColor=#ffffff;align=center;" parent="0mOlbP7xLzRMstRWg_M5-70" vertex="1">
          <mxGeometry x="35" y="1700" width="10" height="80" as="geometry" />
        </mxCell>
        <mxCell id="0mOlbP7xLzRMstRWg_M5-168" value="" style="html=1;points=[];perimeter=orthogonalPerimeter;labelBackgroundColor=none;fontSize=12;strokeWidth=1;fillColor=#ffffff;align=center;" parent="0mOlbP7xLzRMstRWg_M5-70" vertex="1">
          <mxGeometry x="40" y="1740" width="10" height="20" as="geometry" />
        </mxCell>
        <mxCell id="0mOlbP7xLzRMstRWg_M5-169" value="清除&lt;b&gt;&lt;font color=&quot;#00cc00&quot;&gt;AuthKey&lt;/font&gt;&lt;/b&gt;记录&lt;br&gt;清除&lt;b&gt;生物信息&lt;/b&gt;记录" style="edgeStyle=orthogonalEdgeStyle;html=1;align=left;spacingLeft=2;endArrow=block;rounded=0;entryX=1;entryY=0;labelBackgroundColor=#ffffff;fontSize=12;" parent="0mOlbP7xLzRMstRWg_M5-70" target="0mOlbP7xLzRMstRWg_M5-168" edge="1">
          <mxGeometry relative="1" as="geometry">
            <mxPoint x="45" y="1720" as="sourcePoint" />
            <Array as="points">
              <mxPoint x="75" y="1720" />
            </Array>
          </mxGeometry>
        </mxCell>
        <mxCell id="0mOlbP7xLzRMstRWg_M5-184" value="" style="html=1;points=[];perimeter=orthogonalPerimeter;labelBackgroundColor=none;fontSize=12;strokeWidth=1;fillColor=#ffffff;align=center;" parent="0mOlbP7xLzRMstRWg_M5-70" vertex="1">
          <mxGeometry x="40" y="400" width="10" height="20" as="geometry" />
        </mxCell>
        <mxCell id="0mOlbP7xLzRMstRWg_M5-185" value="注册成功则&lt;br&gt;记录&lt;b&gt;&lt;font color=&quot;#007fff&quot;&gt;ASK&lt;/font&gt;&lt;/b&gt;" style="edgeStyle=orthogonalEdgeStyle;html=1;align=left;spacingLeft=2;endArrow=block;rounded=0;entryX=1;entryY=0;labelBackgroundColor=#ffffff;fontSize=12;" parent="0mOlbP7xLzRMstRWg_M5-70" target="0mOlbP7xLzRMstRWg_M5-184" edge="1">
          <mxGeometry relative="1" as="geometry">
            <mxPoint x="45" y="380" as="sourcePoint" />
            <Array as="points">
              <mxPoint x="75" y="380" />
            </Array>
          </mxGeometry>
        </mxCell>
        <mxCell id="0mOlbP7xLzRMstRWg_M5-186" value="" style="html=1;points=[];perimeter=orthogonalPerimeter;labelBackgroundColor=none;fontSize=12;strokeWidth=1;fillColor=#ffffff;align=center;" parent="0mOlbP7xLzRMstRWg_M5-70" vertex="1">
          <mxGeometry x="40" y="860" width="10" height="20" as="geometry" />
        </mxCell>
        <mxCell id="0mOlbP7xLzRMstRWg_M5-187" value="记录&lt;b&gt;&lt;font color=&quot;#00cc00&quot;&gt;AuthKey&lt;/font&gt;&lt;/b&gt;&lt;br&gt;记录&lt;b&gt;生物信息&lt;/b&gt;" style="edgeStyle=orthogonalEdgeStyle;html=1;align=left;spacingLeft=2;endArrow=block;rounded=0;entryX=1;entryY=0;labelBackgroundColor=#ffffff;fontSize=12;" parent="0mOlbP7xLzRMstRWg_M5-70" target="0mOlbP7xLzRMstRWg_M5-186" edge="1">
          <mxGeometry relative="1" as="geometry">
            <mxPoint x="45" y="840" as="sourcePoint" />
            <Array as="points">
              <mxPoint x="75" y="840" />
            </Array>
          </mxGeometry>
        </mxCell>
        <mxCell id="0mOlbP7xLzRMstRWg_M5-71" value="Svr&lt;br&gt;基础侧" style="shape=umlLifeline;perimeter=lifelinePerimeter;whiteSpace=wrap;html=1;container=1;collapsible=0;recursiveResize=0;outlineConnect=0;labelBackgroundColor=none;fontSize=12;strokeWidth=1;align=center;" parent="YpG11p54W12MGPFQJL24-1" vertex="1">
          <mxGeometry x="2090" y="40" width="80" height="2060" as="geometry" />
        </mxCell>
        <mxCell id="0mOlbP7xLzRMstRWg_M5-89" value="" style="html=1;points=[];perimeter=orthogonalPerimeter;labelBackgroundColor=none;fontSize=12;strokeWidth=1;fillColor=#ffffff;align=center;" parent="0mOlbP7xLzRMstRWg_M5-71" vertex="1">
          <mxGeometry x="35" y="220" width="10" height="140" as="geometry" />
        </mxCell>
        <mxCell id="0mOlbP7xLzRMstRWg_M5-92" value="" style="html=1;points=[];perimeter=orthogonalPerimeter;labelBackgroundColor=none;fontSize=12;strokeWidth=1;fillColor=#ffffff;align=center;" parent="0mOlbP7xLzRMstRWg_M5-71" vertex="1">
          <mxGeometry x="40" y="260" width="10" height="20" as="geometry" />
        </mxCell>
        <mxCell id="0mOlbP7xLzRMstRWg_M5-93" value="验证&lt;b&gt;&lt;font color=&quot;#007fff&quot;&gt;ASK&lt;/font&gt;&lt;/b&gt;合法性" style="edgeStyle=orthogonalEdgeStyle;html=1;align=left;spacingLeft=2;endArrow=block;rounded=0;entryX=1;entryY=0;labelBackgroundColor=#ffffff;fontSize=12;" parent="0mOlbP7xLzRMstRWg_M5-71" target="0mOlbP7xLzRMstRWg_M5-92" edge="1">
          <mxGeometry relative="1" as="geometry">
            <mxPoint x="45" y="240" as="sourcePoint" />
            <Array as="points">
              <mxPoint x="75" y="240" />
            </Array>
          </mxGeometry>
        </mxCell>
        <mxCell id="0mOlbP7xLzRMstRWg_M5-96" value="" style="html=1;points=[];perimeter=orthogonalPerimeter;labelBackgroundColor=none;fontSize=12;strokeWidth=1;fillColor=#ffffff;align=center;" parent="0mOlbP7xLzRMstRWg_M5-71" vertex="1">
          <mxGeometry x="40" y="320" width="10" height="20" as="geometry" />
        </mxCell>
        <mxCell id="0mOlbP7xLzRMstRWg_M5-97" value="存储&lt;b&gt;&lt;font color=&quot;#007fff&quot;&gt;ASK&lt;/font&gt;&lt;/b&gt;" style="edgeStyle=orthogonalEdgeStyle;html=1;align=left;spacingLeft=2;endArrow=block;rounded=0;entryX=1;entryY=0;labelBackgroundColor=#ffffff;fontSize=12;" parent="0mOlbP7xLzRMstRWg_M5-71" target="0mOlbP7xLzRMstRWg_M5-96" edge="1">
          <mxGeometry relative="1" as="geometry">
            <mxPoint x="45" y="300" as="sourcePoint" />
            <Array as="points">
              <mxPoint x="75" y="300" />
            </Array>
          </mxGeometry>
        </mxCell>
        <mxCell id="0mOlbP7xLzRMstRWg_M5-114" value="" style="html=1;points=[];perimeter=orthogonalPerimeter;labelBackgroundColor=none;fontSize=12;strokeWidth=1;fillColor=#ffffff;align=center;" parent="0mOlbP7xLzRMstRWg_M5-71" vertex="1">
          <mxGeometry x="35" y="640" width="10" height="20" as="geometry" />
        </mxCell>
        <mxCell id="0mOlbP7xLzRMstRWg_M5-127" value="" style="html=1;points=[];perimeter=orthogonalPerimeter;labelBackgroundColor=none;fontSize=12;strokeWidth=1;fillColor=#ffffff;align=center;" parent="0mOlbP7xLzRMstRWg_M5-71" vertex="1">
          <mxGeometry x="35" y="940" width="10" height="20" as="geometry" />
        </mxCell>
        <mxCell id="0mOlbP7xLzRMstRWg_M5-148" value="" style="html=1;points=[];perimeter=orthogonalPerimeter;labelBackgroundColor=none;fontSize=12;strokeWidth=1;fillColor=#ffffff;align=center;" parent="0mOlbP7xLzRMstRWg_M5-71" vertex="1">
          <mxGeometry x="35" y="1320" width="10" height="20" as="geometry" />
        </mxCell>
        <mxCell id="0mOlbP7xLzRMstRWg_M5-72" value="Svr&lt;br&gt;业务侧" style="shape=umlLifeline;perimeter=lifelinePerimeter;whiteSpace=wrap;html=1;container=1;collapsible=0;recursiveResize=0;outlineConnect=0;labelBackgroundColor=none;fontSize=12;strokeWidth=1;align=center;" parent="YpG11p54W12MGPFQJL24-1" vertex="1">
          <mxGeometry x="2250" y="40" width="80" height="2060" as="geometry" />
        </mxCell>
        <mxCell id="0mOlbP7xLzRMstRWg_M5-123" value="" style="html=1;points=[];perimeter=orthogonalPerimeter;labelBackgroundColor=none;fontSize=12;strokeWidth=1;fillColor=#ffffff;align=center;" parent="0mOlbP7xLzRMstRWg_M5-72" vertex="1">
          <mxGeometry x="35" y="920" width="10" height="180" as="geometry" />
        </mxCell>
        <mxCell id="0mOlbP7xLzRMstRWg_M5-125" value="请求结果，成功则返回&lt;b&gt;&lt;font color=&quot;#ff0000&quot;&gt;生物票据&lt;/font&gt;&lt;/b&gt;" style="html=1;verticalAlign=bottom;endArrow=open;dashed=1;endSize=8;exitX=0;exitY=0.95;labelBackgroundColor=#ffffff;fontSize=12;" parent="0mOlbP7xLzRMstRWg_M5-72" edge="1">
          <mxGeometry relative="1" as="geometry">
            <mxPoint x="-435" y="1090" as="targetPoint" />
            <mxPoint x="35" y="1090" as="sourcePoint" />
          </mxGeometry>
        </mxCell>
        <mxCell id="0mOlbP7xLzRMstRWg_M5-133" value="" style="html=1;points=[];perimeter=orthogonalPerimeter;labelBackgroundColor=none;fontSize=12;strokeWidth=1;fillColor=#ffffff;align=center;" parent="0mOlbP7xLzRMstRWg_M5-72" vertex="1">
          <mxGeometry x="40" y="1000" width="10" height="20" as="geometry" />
        </mxCell>
        <mxCell id="0mOlbP7xLzRMstRWg_M5-134" value="&lt;b&gt;生物信息&amp;amp;签名&lt;/b&gt;验证" style="edgeStyle=orthogonalEdgeStyle;html=1;align=left;spacingLeft=2;endArrow=block;rounded=0;entryX=1;entryY=0;labelBackgroundColor=#ffffff;fontSize=12;" parent="0mOlbP7xLzRMstRWg_M5-72" target="0mOlbP7xLzRMstRWg_M5-133" edge="1">
          <mxGeometry relative="1" as="geometry">
            <mxPoint x="45" y="980" as="sourcePoint" />
            <Array as="points">
              <mxPoint x="75" y="980" />
            </Array>
          </mxGeometry>
        </mxCell>
        <mxCell id="0mOlbP7xLzRMstRWg_M5-135" value="" style="html=1;points=[];perimeter=orthogonalPerimeter;labelBackgroundColor=none;fontSize=12;strokeWidth=1;fillColor=#ffffff;align=center;" parent="0mOlbP7xLzRMstRWg_M5-72" vertex="1">
          <mxGeometry x="40" y="1060" width="10" height="20" as="geometry" />
        </mxCell>
        <mxCell id="0mOlbP7xLzRMstRWg_M5-136" value="存储&lt;b&gt;&lt;font color=&quot;#00cc00&quot;&gt;AuthKey&lt;/font&gt;&lt;/b&gt;&lt;br&gt;存储&lt;b&gt;生物信息&lt;/b&gt;" style="edgeStyle=orthogonalEdgeStyle;html=1;align=left;spacingLeft=2;endArrow=block;rounded=0;entryX=1;entryY=0;labelBackgroundColor=#ffffff;fontSize=12;" parent="0mOlbP7xLzRMstRWg_M5-72" target="0mOlbP7xLzRMstRWg_M5-135" edge="1">
          <mxGeometry relative="1" as="geometry">
            <mxPoint x="45" y="1040" as="sourcePoint" />
            <Array as="points">
              <mxPoint x="75" y="1040" />
            </Array>
          </mxGeometry>
        </mxCell>
        <mxCell id="0mOlbP7xLzRMstRWg_M5-157" value="" style="html=1;points=[];perimeter=orthogonalPerimeter;labelBackgroundColor=none;fontSize=12;strokeWidth=1;fillColor=#ffffff;align=center;" parent="0mOlbP7xLzRMstRWg_M5-72" vertex="1">
          <mxGeometry x="35" y="1540" width="10" height="80" as="geometry" />
        </mxCell>
        <mxCell id="0mOlbP7xLzRMstRWg_M5-159" value="验证结果，业务功能返回信息" style="html=1;verticalAlign=bottom;endArrow=open;dashed=1;endSize=8;exitX=0;exitY=0.95;labelBackgroundColor=#ffffff;fontSize=12;" parent="0mOlbP7xLzRMstRWg_M5-72" target="0mOlbP7xLzRMstRWg_M5-140" edge="1">
          <mxGeometry relative="1" as="geometry">
            <mxPoint x="-35" y="1610" as="targetPoint" />
            <mxPoint x="35" y="1610" as="sourcePoint" />
          </mxGeometry>
        </mxCell>
        <mxCell id="0mOlbP7xLzRMstRWg_M5-160" value="" style="html=1;points=[];perimeter=orthogonalPerimeter;labelBackgroundColor=none;fontSize=12;strokeWidth=1;fillColor=#ffffff;align=center;" parent="0mOlbP7xLzRMstRWg_M5-72" vertex="1">
          <mxGeometry x="40" y="1580" width="10" height="20" as="geometry" />
        </mxCell>
        <mxCell id="0mOlbP7xLzRMstRWg_M5-161" value="&lt;b&gt;生物信息&amp;amp;签名&lt;/b&gt;验证" style="edgeStyle=orthogonalEdgeStyle;html=1;align=left;spacingLeft=2;endArrow=block;rounded=0;entryX=1;entryY=0;labelBackgroundColor=#ffffff;fontSize=12;" parent="0mOlbP7xLzRMstRWg_M5-72" target="0mOlbP7xLzRMstRWg_M5-160" edge="1">
          <mxGeometry relative="1" as="geometry">
            <mxPoint x="45" y="1560" as="sourcePoint" />
            <Array as="points">
              <mxPoint x="75" y="1560" />
            </Array>
          </mxGeometry>
        </mxCell>
        <mxCell id="0mOlbP7xLzRMstRWg_M5-173" value="" style="html=1;points=[];perimeter=orthogonalPerimeter;labelBackgroundColor=none;fontSize=12;strokeWidth=1;fillColor=#ffffff;align=center;" parent="0mOlbP7xLzRMstRWg_M5-72" vertex="1">
          <mxGeometry x="35" y="1820" width="10" height="80" as="geometry" />
        </mxCell>
        <mxCell id="0mOlbP7xLzRMstRWg_M5-178" value="" style="html=1;points=[];perimeter=orthogonalPerimeter;labelBackgroundColor=none;fontSize=12;strokeWidth=1;fillColor=#ffffff;align=center;" parent="0mOlbP7xLzRMstRWg_M5-72" vertex="1">
          <mxGeometry x="40" y="1860" width="10" height="20" as="geometry" />
        </mxCell>
        <mxCell id="0mOlbP7xLzRMstRWg_M5-179" value="清除&lt;b&gt;&lt;font color=&quot;#00cc00&quot;&gt;AuthKey&lt;/font&gt;&lt;/b&gt;&lt;br&gt;清除&lt;b&gt;生物信息&lt;br&gt;&lt;/b&gt;" style="edgeStyle=orthogonalEdgeStyle;html=1;align=left;spacingLeft=2;endArrow=block;rounded=0;entryX=1;entryY=0;labelBackgroundColor=#ffffff;fontSize=12;" parent="0mOlbP7xLzRMstRWg_M5-72" target="0mOlbP7xLzRMstRWg_M5-178" edge="1">
          <mxGeometry relative="1" as="geometry">
            <mxPoint x="45" y="1840" as="sourcePoint" />
            <Array as="points">
              <mxPoint x="75" y="1840" />
            </Array>
          </mxGeometry>
        </mxCell>
        <mxCell id="0mOlbP7xLzRMstRWg_M5-74" value="初始化" style="html=1;verticalAlign=bottom;endArrow=block;entryX=0;entryY=0;labelBackgroundColor=#ffffff;fontSize=12;" parent="YpG11p54W12MGPFQJL24-1" target="0mOlbP7xLzRMstRWg_M5-73" edge="1">
          <mxGeometry relative="1" as="geometry">
            <mxPoint x="1809.6666666666665" y="120.0000000000008" as="sourcePoint" />
          </mxGeometry>
        </mxCell>
        <mxCell id="0mOlbP7xLzRMstRWg_M5-78" value="" style="html=1;points=[];perimeter=orthogonalPerimeter;labelBackgroundColor=none;fontSize=12;strokeWidth=1;fillColor=#ffffff;align=center;" parent="YpG11p54W12MGPFQJL24-1" vertex="1">
          <mxGeometry x="1970" y="160" width="10" height="20" as="geometry" />
        </mxCell>
        <mxCell id="0mOlbP7xLzRMstRWg_M5-79" value="支持能力确认&lt;span style=&quot;font-size: 10px&quot;&gt;*&lt;/span&gt;" style="edgeStyle=orthogonalEdgeStyle;html=1;align=left;spacingLeft=2;endArrow=block;rounded=0;entryX=1;entryY=0;labelBackgroundColor=#ffffff;fontSize=12;" parent="YpG11p54W12MGPFQJL24-1" target="0mOlbP7xLzRMstRWg_M5-78" edge="1">
          <mxGeometry relative="1" as="geometry">
            <mxPoint x="1975" y="140" as="sourcePoint" />
            <Array as="points">
              <mxPoint x="2005" y="140" />
            </Array>
          </mxGeometry>
        </mxCell>
        <mxCell id="0mOlbP7xLzRMstRWg_M5-90" value="注册&lt;font color=&quot;#007fff&quot;&gt;&lt;b&gt;ASK&lt;/b&gt;&lt;/font&gt;" style="html=1;verticalAlign=bottom;endArrow=block;entryX=0;entryY=0;labelBackgroundColor=#ffffff;fontSize=12;" parent="YpG11p54W12MGPFQJL24-1" source="0mOlbP7xLzRMstRWg_M5-73" target="0mOlbP7xLzRMstRWg_M5-89" edge="1">
          <mxGeometry relative="1" as="geometry">
            <mxPoint x="2055" y="260" as="sourcePoint" />
          </mxGeometry>
        </mxCell>
        <mxCell id="0mOlbP7xLzRMstRWg_M5-91" value="注册结果" style="html=1;verticalAlign=bottom;endArrow=open;dashed=1;endSize=8;exitX=0;exitY=0.95;labelBackgroundColor=#ffffff;fontSize=12;" parent="YpG11p54W12MGPFQJL24-1" edge="1">
          <mxGeometry relative="1" as="geometry">
            <mxPoint x="1975" y="389.9999999999999" as="targetPoint" />
            <mxPoint x="2125" y="389.9999999999999" as="sourcePoint" />
          </mxGeometry>
        </mxCell>
        <mxCell id="0mOlbP7xLzRMstRWg_M5-75" value="return" style="html=1;verticalAlign=bottom;endArrow=open;dashed=1;endSize=8;labelBackgroundColor=#ffffff;fontSize=12;" parent="YpG11p54W12MGPFQJL24-1" edge="1">
          <mxGeometry relative="1" as="geometry">
            <mxPoint x="1809.6666666666665" y="470" as="targetPoint" />
            <mxPoint x="1965" y="470" as="sourcePoint" />
          </mxGeometry>
        </mxCell>
        <mxCell id="0mOlbP7xLzRMstRWg_M5-102" value="开启业务功能" style="html=1;verticalAlign=bottom;endArrow=block;entryX=0;entryY=0;labelBackgroundColor=#ffffff;fontSize=12;" parent="YpG11p54W12MGPFQJL24-1" source="0mOlbP7xLzRMstRWg_M5-68" target="0mOlbP7xLzRMstRWg_M5-101" edge="1">
          <mxGeometry relative="1" as="geometry">
            <mxPoint x="1689.0714285714284" y="520.0000000000036" as="sourcePoint" />
          </mxGeometry>
        </mxCell>
        <mxCell id="0mOlbP7xLzRMstRWg_M5-105" value="注册业务场景" style="html=1;verticalAlign=bottom;endArrow=block;entryX=0;entryY=0;labelBackgroundColor=#ffffff;fontSize=12;" parent="YpG11p54W12MGPFQJL24-1" source="0mOlbP7xLzRMstRWg_M5-101" target="0mOlbP7xLzRMstRWg_M5-104" edge="1">
          <mxGeometry relative="1" as="geometry">
            <mxPoint x="1895" y="540" as="sourcePoint" />
          </mxGeometry>
        </mxCell>
        <mxCell id="0mOlbP7xLzRMstRWg_M5-113" value="处理UI更新" style="html=1;verticalAlign=bottom;endArrow=open;dashed=1;endSize=8;labelBackgroundColor=#ffffff;fontSize=12;exitX=-0.055;exitY=0.235;exitDx=0;exitDy=0;exitPerimeter=0;" parent="YpG11p54W12MGPFQJL24-1" edge="1">
          <mxGeometry relative="1" as="geometry">
            <mxPoint x="1969.45" y="758.8" as="sourcePoint" />
            <mxPoint x="1814.9999999999998" y="758.8" as="targetPoint" />
          </mxGeometry>
        </mxCell>
        <mxCell id="0mOlbP7xLzRMstRWg_M5-115" value="获取挑战因子" style="html=1;verticalAlign=bottom;endArrow=block;entryX=0;entryY=0;labelBackgroundColor=#ffffff;fontSize=12;" parent="YpG11p54W12MGPFQJL24-1" source="0mOlbP7xLzRMstRWg_M5-104" target="0mOlbP7xLzRMstRWg_M5-114" edge="1">
          <mxGeometry relative="1" as="geometry">
            <mxPoint x="2055" y="680" as="sourcePoint" />
          </mxGeometry>
        </mxCell>
        <mxCell id="0mOlbP7xLzRMstRWg_M5-116" value="挑战因子" style="html=1;verticalAlign=bottom;endArrow=open;dashed=1;endSize=8;exitX=0;exitY=0.95;labelBackgroundColor=#ffffff;fontSize=12;" parent="YpG11p54W12MGPFQJL24-1" source="0mOlbP7xLzRMstRWg_M5-114" target="0mOlbP7xLzRMstRWg_M5-104" edge="1">
          <mxGeometry relative="1" as="geometry">
            <mxPoint x="2055" y="756" as="targetPoint" />
          </mxGeometry>
        </mxCell>
        <mxCell id="0mOlbP7xLzRMstRWg_M5-106" value="&lt;b&gt;&lt;font color=&quot;#00cc00&quot;&gt;AuthKey&lt;/font&gt;&lt;/b&gt;&lt;br&gt;&lt;b&gt;生物信息&amp;amp;签名&lt;/b&gt;" style="html=1;verticalAlign=bottom;endArrow=open;dashed=1;endSize=8;exitX=0;exitY=0.95;labelBackgroundColor=#ffffff;fontSize=12;" parent="YpG11p54W12MGPFQJL24-1" edge="1">
          <mxGeometry relative="1" as="geometry">
            <mxPoint x="1814.9999999999998" y="929.9999999999998" as="targetPoint" />
            <mxPoint x="1965" y="929.9999999999998" as="sourcePoint" />
            <mxPoint as="offset" />
          </mxGeometry>
        </mxCell>
        <mxCell id="0mOlbP7xLzRMstRWg_M5-117" value="取消信号" style="html=1;verticalAlign=bottom;endArrow=block;labelBackgroundColor=#ffffff;fontSize=12;" parent="YpG11p54W12MGPFQJL24-1" edge="1">
          <mxGeometry width="80" relative="1" as="geometry">
            <mxPoint x="1815" y="780" as="sourcePoint" />
            <mxPoint x="1970" y="780" as="targetPoint" />
          </mxGeometry>
        </mxCell>
        <mxCell id="0mOlbP7xLzRMstRWg_M5-124" value="开启功能请求，带上&lt;font color=&quot;#00cc00&quot;&gt;&lt;b&gt;AuthKey&lt;/b&gt;&lt;/font&gt;、生物信息&amp;amp;签名" style="html=1;verticalAlign=bottom;endArrow=block;entryX=0;entryY=0;labelBackgroundColor=#ffffff;fontSize=12;" parent="YpG11p54W12MGPFQJL24-1" target="0mOlbP7xLzRMstRWg_M5-123" edge="1">
          <mxGeometry relative="1" as="geometry">
            <mxPoint x="1815" y="960.0000000000002" as="sourcePoint" />
          </mxGeometry>
        </mxCell>
        <mxCell id="0mOlbP7xLzRMstRWg_M5-128" value="验证&lt;b&gt;&lt;font color=&quot;#00cc00&quot;&gt;AuthKey&lt;/font&gt;&lt;/b&gt;合法性" style="html=1;verticalAlign=bottom;endArrow=block;entryX=1;entryY=0;labelBackgroundColor=#ffffff;fontSize=12;" parent="YpG11p54W12MGPFQJL24-1" source="0mOlbP7xLzRMstRWg_M5-123" target="0mOlbP7xLzRMstRWg_M5-127" edge="1">
          <mxGeometry relative="1" as="geometry">
            <mxPoint x="2195" y="980" as="sourcePoint" />
          </mxGeometry>
        </mxCell>
        <mxCell id="0mOlbP7xLzRMstRWg_M5-129" value="验证结果" style="html=1;verticalAlign=bottom;endArrow=open;dashed=1;endSize=8;exitX=1;exitY=0.95;labelBackgroundColor=#ffffff;fontSize=12;" parent="YpG11p54W12MGPFQJL24-1" source="0mOlbP7xLzRMstRWg_M5-127" target="0mOlbP7xLzRMstRWg_M5-123" edge="1">
          <mxGeometry relative="1" as="geometry">
            <mxPoint x="2195" y="1037" as="targetPoint" />
          </mxGeometry>
        </mxCell>
        <mxCell id="0mOlbP7xLzRMstRWg_M5-141" value="使用业务功能" style="html=1;verticalAlign=bottom;endArrow=block;entryX=0;entryY=0;labelBackgroundColor=#ffffff;fontSize=12;" parent="YpG11p54W12MGPFQJL24-1" source="0mOlbP7xLzRMstRWg_M5-68" target="0mOlbP7xLzRMstRWg_M5-140" edge="1">
          <mxGeometry relative="1" as="geometry">
            <mxPoint x="1676.5" y="1260.0000000000018" as="sourcePoint" />
          </mxGeometry>
        </mxCell>
        <mxCell id="0mOlbP7xLzRMstRWg_M5-144" value="验证业务场景" style="html=1;verticalAlign=bottom;endArrow=block;entryX=0;entryY=0;labelBackgroundColor=#ffffff;fontSize=12;" parent="YpG11p54W12MGPFQJL24-1" source="0mOlbP7xLzRMstRWg_M5-140" target="0mOlbP7xLzRMstRWg_M5-143" edge="1">
          <mxGeometry relative="1" as="geometry">
            <mxPoint x="1895" y="1280" as="sourcePoint" />
          </mxGeometry>
        </mxCell>
        <mxCell id="0mOlbP7xLzRMstRWg_M5-149" value="获取挑战因子" style="html=1;verticalAlign=bottom;endArrow=block;entryX=0;entryY=0;labelBackgroundColor=#ffffff;fontSize=12;" parent="YpG11p54W12MGPFQJL24-1" source="0mOlbP7xLzRMstRWg_M5-143" target="0mOlbP7xLzRMstRWg_M5-148" edge="1">
          <mxGeometry relative="1" as="geometry">
            <mxPoint x="2055" y="1360" as="sourcePoint" />
          </mxGeometry>
        </mxCell>
        <mxCell id="0mOlbP7xLzRMstRWg_M5-150" value="挑战因子" style="html=1;verticalAlign=bottom;endArrow=open;dashed=1;endSize=8;exitX=0;exitY=0.95;labelBackgroundColor=#ffffff;fontSize=12;" parent="YpG11p54W12MGPFQJL24-1" source="0mOlbP7xLzRMstRWg_M5-148" target="0mOlbP7xLzRMstRWg_M5-143" edge="1">
          <mxGeometry relative="1" as="geometry">
            <mxPoint x="2055" y="1436" as="targetPoint" />
          </mxGeometry>
        </mxCell>
        <mxCell id="0mOlbP7xLzRMstRWg_M5-151" value="" style="html=1;points=[];perimeter=orthogonalPerimeter;labelBackgroundColor=none;fontSize=12;strokeWidth=1;fillColor=#ffffff;align=center;" parent="YpG11p54W12MGPFQJL24-1" vertex="1">
          <mxGeometry x="1970" y="1420" width="10" height="60" as="geometry" />
        </mxCell>
        <mxCell id="0mOlbP7xLzRMstRWg_M5-152" value="调起指纹验证" style="edgeStyle=orthogonalEdgeStyle;html=1;align=left;spacingLeft=2;endArrow=block;rounded=0;entryX=1;entryY=0;labelBackgroundColor=#ffffff;fontSize=12;" parent="YpG11p54W12MGPFQJL24-1" target="0mOlbP7xLzRMstRWg_M5-151" edge="1">
          <mxGeometry relative="1" as="geometry">
            <mxPoint x="1975" y="1400" as="sourcePoint" />
            <Array as="points">
              <mxPoint x="2005" y="1400" />
            </Array>
          </mxGeometry>
        </mxCell>
        <mxCell id="0mOlbP7xLzRMstRWg_M5-153" value="处理UI更新" style="html=1;verticalAlign=bottom;endArrow=open;dashed=1;endSize=8;labelBackgroundColor=#ffffff;fontSize=12;exitX=-0.055;exitY=0.235;exitDx=0;exitDy=0;exitPerimeter=0;" parent="YpG11p54W12MGPFQJL24-1" target="0mOlbP7xLzRMstRWg_M5-140" edge="1">
          <mxGeometry relative="1" as="geometry">
            <mxPoint x="1969.45" y="1438.8000000000002" as="sourcePoint" />
            <mxPoint x="1814.9999999999998" y="1438.8000000000002" as="targetPoint" />
          </mxGeometry>
        </mxCell>
        <mxCell id="0mOlbP7xLzRMstRWg_M5-154" value="取消信号" style="html=1;verticalAlign=bottom;endArrow=block;labelBackgroundColor=#ffffff;fontSize=12;" parent="YpG11p54W12MGPFQJL24-1" source="0mOlbP7xLzRMstRWg_M5-140" edge="1">
          <mxGeometry width="80" relative="1" as="geometry">
            <mxPoint x="1815" y="1460" as="sourcePoint" />
            <mxPoint x="1970" y="1460" as="targetPoint" />
          </mxGeometry>
        </mxCell>
        <mxCell id="0mOlbP7xLzRMstRWg_M5-145" value="生物信息&amp;amp;签名" style="html=1;verticalAlign=bottom;endArrow=open;dashed=1;endSize=8;exitX=0;exitY=0.95;labelBackgroundColor=#ffffff;fontSize=12;fontStyle=1" parent="YpG11p54W12MGPFQJL24-1" edge="1">
          <mxGeometry relative="1" as="geometry">
            <mxPoint x="1814.9999999999998" y="1550" as="targetPoint" />
            <mxPoint x="1965" y="1550" as="sourcePoint" />
          </mxGeometry>
        </mxCell>
        <mxCell id="0mOlbP7xLzRMstRWg_M5-158" value="&amp;nbsp;验证功能请求，带上&lt;font color=&quot;#ff0000&quot;&gt;&lt;b&gt;生物票据&lt;/b&gt;&lt;/font&gt;、&lt;b&gt;生物信息&amp;amp;签名&lt;/b&gt;" style="html=1;verticalAlign=bottom;endArrow=block;entryX=0;entryY=0;labelBackgroundColor=#ffffff;fontSize=12;" parent="YpG11p54W12MGPFQJL24-1" source="0mOlbP7xLzRMstRWg_M5-140" target="0mOlbP7xLzRMstRWg_M5-157" edge="1">
          <mxGeometry relative="1" as="geometry">
            <mxPoint x="2215" y="1580" as="sourcePoint" />
          </mxGeometry>
        </mxCell>
        <mxCell id="0mOlbP7xLzRMstRWg_M5-142" value="业务功能结果" style="html=1;verticalAlign=bottom;endArrow=open;dashed=1;endSize=8;exitX=0;exitY=0.95;labelBackgroundColor=#ffffff;fontSize=12;" parent="YpG11p54W12MGPFQJL24-1" target="0mOlbP7xLzRMstRWg_M5-68" edge="1">
          <mxGeometry relative="1" as="geometry">
            <mxPoint x="1676.5" y="1670" as="targetPoint" />
            <mxPoint x="1805" y="1670" as="sourcePoint" />
          </mxGeometry>
        </mxCell>
        <mxCell id="0mOlbP7xLzRMstRWg_M5-163" value="关闭业务功能" style="html=1;verticalAlign=bottom;endArrow=block;entryX=0;entryY=0;labelBackgroundColor=#ffffff;fontSize=12;" parent="YpG11p54W12MGPFQJL24-1" source="0mOlbP7xLzRMstRWg_M5-68" target="0mOlbP7xLzRMstRWg_M5-162" edge="1">
          <mxGeometry relative="1" as="geometry">
            <mxPoint x="1676.5" y="1720" as="sourcePoint" />
          </mxGeometry>
        </mxCell>
        <mxCell id="0mOlbP7xLzRMstRWg_M5-166" value="注销业务场景" style="html=1;verticalAlign=bottom;endArrow=block;entryX=0;entryY=0;labelBackgroundColor=#ffffff;fontSize=12;" parent="YpG11p54W12MGPFQJL24-1" source="0mOlbP7xLzRMstRWg_M5-162" target="0mOlbP7xLzRMstRWg_M5-165" edge="1">
          <mxGeometry relative="1" as="geometry">
            <mxPoint x="1895" y="1740" as="sourcePoint" />
          </mxGeometry>
        </mxCell>
        <mxCell id="0mOlbP7xLzRMstRWg_M5-167" value="&lt;b&gt;生物信息&lt;/b&gt;" style="html=1;verticalAlign=bottom;endArrow=open;dashed=1;endSize=8;exitX=0;exitY=0.95;labelBackgroundColor=#ffffff;fontSize=12;" parent="YpG11p54W12MGPFQJL24-1" edge="1">
          <mxGeometry relative="1" as="geometry">
            <mxPoint x="1815" y="1810" as="targetPoint" />
            <mxPoint x="1965" y="1810" as="sourcePoint" />
          </mxGeometry>
        </mxCell>
        <mxCell id="0mOlbP7xLzRMstRWg_M5-174" value="关闭功能请求，带上&lt;b&gt;生物信息&lt;/b&gt;" style="html=1;verticalAlign=bottom;endArrow=block;entryX=0;entryY=0;labelBackgroundColor=#ffffff;fontSize=12;" parent="YpG11p54W12MGPFQJL24-1" target="0mOlbP7xLzRMstRWg_M5-173" edge="1">
          <mxGeometry relative="1" as="geometry">
            <mxPoint x="1815" y="1860" as="sourcePoint" />
          </mxGeometry>
        </mxCell>
        <mxCell id="0mOlbP7xLzRMstRWg_M5-175" value="请求结果" style="html=1;verticalAlign=bottom;endArrow=open;dashed=1;endSize=8;exitX=0;exitY=0.95;labelBackgroundColor=#ffffff;fontSize=12;" parent="YpG11p54W12MGPFQJL24-1" edge="1">
          <mxGeometry relative="1" as="geometry">
            <mxPoint x="1815" y="1930" as="targetPoint" />
            <mxPoint x="2285" y="1930" as="sourcePoint" />
          </mxGeometry>
        </mxCell>
        <mxCell id="0mOlbP7xLzRMstRWg_M5-164" value="关闭结果" style="html=1;verticalAlign=bottom;endArrow=open;dashed=1;endSize=8;exitX=0;exitY=0.95;labelBackgroundColor=#ffffff;fontSize=12;" parent="YpG11p54W12MGPFQJL24-1" edge="1">
          <mxGeometry relative="1" as="geometry">
            <mxPoint x="1677" y="2070" as="targetPoint" />
            <mxPoint x="1805" y="2070" as="sourcePoint" />
          </mxGeometry>
        </mxCell>
        <mxCell id="0mOlbP7xLzRMstRWg_M5-180" value="初始化流程" style="swimlane;horizontal=0;labelBackgroundColor=none;fontSize=12;strokeWidth=1;fillColor=#ffffff;align=center;" parent="YpG11p54W12MGPFQJL24-1" vertex="1">
          <mxGeometry x="1640" y="100" width="820" height="400" as="geometry" />
        </mxCell>
        <mxCell id="0mOlbP7xLzRMstRWg_M5-181" value="开启业务功能 &amp; 注册业务场景流程" style="swimlane;horizontal=0;labelBackgroundColor=none;fontSize=12;strokeWidth=1;fillColor=#ffffff;align=center;" parent="YpG11p54W12MGPFQJL24-1" vertex="1">
          <mxGeometry x="1640" y="500" width="820" height="740" as="geometry" />
        </mxCell>
        <mxCell id="0mOlbP7xLzRMstRWg_M5-191" value="" style="html=1;points=[];perimeter=orthogonalPerimeter;labelBackgroundColor=none;fontSize=12;strokeWidth=1;fillColor=#ffffff;align=center;" parent="0mOlbP7xLzRMstRWg_M5-181" vertex="1">
          <mxGeometry x="170" y="680" width="10" height="20" as="geometry" />
        </mxCell>
        <mxCell id="0mOlbP7xLzRMstRWg_M5-192" value="请求返回成功时&lt;br&gt;记录功能开启&lt;br&gt;记录&lt;b&gt;&lt;font color=&quot;#ff0000&quot;&gt;生物票据&lt;/font&gt;&lt;/b&gt;" style="edgeStyle=orthogonalEdgeStyle;html=1;align=left;spacingLeft=2;endArrow=block;rounded=0;entryX=1;entryY=0;labelBackgroundColor=#ffffff;fontSize=12;" parent="0mOlbP7xLzRMstRWg_M5-181" target="0mOlbP7xLzRMstRWg_M5-191" edge="1">
          <mxGeometry relative="1" as="geometry">
            <mxPoint x="175" y="660" as="sourcePoint" />
            <Array as="points">
              <mxPoint x="205" y="660" />
            </Array>
          </mxGeometry>
        </mxCell>
        <mxCell id="0mOlbP7xLzRMstRWg_M5-196" value="" style="endArrow=none;html=1;labelBackgroundColor=#ffffff;fontSize=12;" parent="YpG11p54W12MGPFQJL24-1" edge="1">
          <mxGeometry width="50" height="50" relative="1" as="geometry">
            <mxPoint x="1720" y="1959" as="sourcePoint" />
            <mxPoint x="2420" y="1960" as="targetPoint" />
          </mxGeometry>
        </mxCell>
        <mxCell id="0mOlbP7xLzRMstRWg_M5-197" value="FTBiometricComponent" style="swimlane;fontStyle=1;align=center;verticalAlign=top;childLayout=stackLayout;horizontal=1;startSize=26;horizontalStack=0;resizeParent=1;resizeParentMax=0;resizeLast=0;collapsible=1;marginBottom=0;labelBackgroundColor=none;fontSize=12;strokeWidth=1;fillColor=#ffffff;" parent="YpG11p54W12MGPFQJL24-1" vertex="1">
          <mxGeometry x="3400" y="200" width="360" height="268" as="geometry" />
        </mxCell>
        <mxCell id="0mOlbP7xLzRMstRWg_M5-198" value="- sceneSet: Set&lt;String&gt;" style="text;strokeColor=none;fillColor=none;align=left;verticalAlign=top;spacingLeft=4;spacingRight=4;overflow=hidden;rotatable=0;points=[[0,0.5],[1,0.5]];portConstraint=eastwest;" parent="0mOlbP7xLzRMstRWg_M5-197" vertex="1">
          <mxGeometry y="26" width="360" height="26" as="geometry" />
        </mxCell>
        <mxCell id="0mOlbP7xLzRMstRWg_M5-258" value="- authenticationMap: HashMap&lt;SupportType, IFTBiometricAuthentication&gt;" style="text;strokeColor=none;fillColor=none;align=left;verticalAlign=top;spacingLeft=4;spacingRight=4;overflow=hidden;rotatable=0;points=[[0,0.5],[1,0.5]];portConstraint=eastwest;" parent="0mOlbP7xLzRMstRWg_M5-197" vertex="1">
          <mxGeometry y="52" width="360" height="26" as="geometry" />
        </mxCell>
        <mxCell id="0mOlbP7xLzRMstRWg_M5-262" value="- state: AtomicReference&lt;State&gt;" style="text;strokeColor=none;fillColor=none;align=left;verticalAlign=top;spacingLeft=4;spacingRight=4;overflow=hidden;rotatable=0;points=[[0,0.5],[1,0.5]];portConstraint=eastwest;" parent="0mOlbP7xLzRMstRWg_M5-197" vertex="1">
          <mxGeometry y="78" width="360" height="26" as="geometry" />
        </mxCell>
        <mxCell id="0mOlbP7xLzRMstRWg_M5-199" value="" style="line;strokeWidth=1;fillColor=none;align=left;verticalAlign=middle;spacingTop=-1;spacingLeft=3;spacingRight=3;rotatable=0;labelPosition=right;points=[];portConstraint=eastwest;" parent="0mOlbP7xLzRMstRWg_M5-197" vertex="1">
          <mxGeometry y="104" width="360" height="8" as="geometry" />
        </mxCell>
        <mxCell id="0mOlbP7xLzRMstRWg_M5-200" value="+ init(callback): Unit" style="text;strokeColor=none;fillColor=none;align=left;verticalAlign=top;spacingLeft=4;spacingRight=4;overflow=hidden;rotatable=0;points=[[0,0.5],[1,0.5]];portConstraint=eastwest;" parent="0mOlbP7xLzRMstRWg_M5-197" vertex="1">
          <mxGeometry y="112" width="360" height="26" as="geometry" />
        </mxCell>
        <mxCell id="0mOlbP7xLzRMstRWg_M5-231" value="+ registerScene(scene,uiCallback, canceller, callback): Unit" style="text;strokeColor=none;fillColor=none;align=left;verticalAlign=top;spacingLeft=4;spacingRight=4;overflow=hidden;rotatable=0;points=[[0,0.5],[1,0.5]];portConstraint=eastwest;" parent="0mOlbP7xLzRMstRWg_M5-197" vertex="1">
          <mxGeometry y="138" width="360" height="26" as="geometry" />
        </mxCell>
        <mxCell id="0mOlbP7xLzRMstRWg_M5-232" value="+ verifyScene(scene, uiCallback, canceller, callback): Unit" style="text;strokeColor=none;fillColor=none;align=left;verticalAlign=top;spacingLeft=4;spacingRight=4;overflow=hidden;rotatable=0;points=[[0,0.5],[1,0.5]];portConstraint=eastwest;" parent="0mOlbP7xLzRMstRWg_M5-197" vertex="1">
          <mxGeometry y="164" width="360" height="26" as="geometry" />
        </mxCell>
        <mxCell id="0mOlbP7xLzRMstRWg_M5-233" value="+ unregisterScene(scene, callback): Unit" style="text;strokeColor=none;fillColor=none;align=left;verticalAlign=top;spacingLeft=4;spacingRight=4;overflow=hidden;rotatable=0;points=[[0,0.5],[1,0.5]];portConstraint=eastwest;" parent="0mOlbP7xLzRMstRWg_M5-197" vertex="1">
          <mxGeometry y="190" width="360" height="26" as="geometry" />
        </mxCell>
        <mxCell id="0mOlbP7xLzRMstRWg_M5-209" value="+ release(): Unit" style="text;strokeColor=none;fillColor=none;align=left;verticalAlign=top;spacingLeft=4;spacingRight=4;overflow=hidden;rotatable=0;points=[[0,0.5],[1,0.5]];portConstraint=eastwest;" parent="0mOlbP7xLzRMstRWg_M5-197" vertex="1">
          <mxGeometry y="216" width="360" height="26" as="geometry" />
        </mxCell>
        <mxCell id="0mOlbP7xLzRMstRWg_M5-261" value="- getAuthentication(SupportType): IFTBiometricAuthentication" style="text;strokeColor=none;fillColor=none;align=left;verticalAlign=top;spacingLeft=4;spacingRight=4;overflow=hidden;rotatable=0;points=[[0,0.5],[1,0.5]];portConstraint=eastwest;" parent="0mOlbP7xLzRMstRWg_M5-197" vertex="1">
          <mxGeometry y="242" width="360" height="26" as="geometry" />
        </mxCell>
        <mxCell id="0mOlbP7xLzRMstRWg_M5-202" value="&lt;&lt;enumeration&gt;&gt;&#xa;SupportType" style="swimlane;fontStyle=1;align=center;verticalAlign=top;childLayout=stackLayout;horizontal=1;startSize=40;horizontalStack=0;resizeParent=1;resizeParentMax=0;resizeLast=0;collapsible=1;marginBottom=0;labelBackgroundColor=none;fontSize=12;strokeWidth=1;fillColor=#ffffff;" parent="YpG11p54W12MGPFQJL24-1" vertex="1">
          <mxGeometry x="3160" y="200" width="160" height="118" as="geometry" />
        </mxCell>
        <mxCell id="0mOlbP7xLzRMstRWg_M5-203" value="NOT_SUPPORT" style="text;strokeColor=none;fillColor=none;align=left;verticalAlign=top;spacingLeft=4;spacingRight=4;overflow=hidden;rotatable=0;points=[[0,0.5],[1,0.5]];portConstraint=eastwest;" parent="0mOlbP7xLzRMstRWg_M5-202" vertex="1">
          <mxGeometry y="40" width="160" height="26" as="geometry" />
        </mxCell>
        <mxCell id="0mOlbP7xLzRMstRWg_M5-206" value="ROUTINE" style="text;strokeColor=none;fillColor=none;align=left;verticalAlign=top;spacingLeft=4;spacingRight=4;overflow=hidden;rotatable=0;points=[[0,0.5],[1,0.5]];portConstraint=eastwest;" parent="0mOlbP7xLzRMstRWg_M5-202" vertex="1">
          <mxGeometry y="66" width="160" height="26" as="geometry" />
        </mxCell>
        <mxCell id="0mOlbP7xLzRMstRWg_M5-207" value="SOTER" style="text;strokeColor=none;fillColor=none;align=left;verticalAlign=top;spacingLeft=4;spacingRight=4;overflow=hidden;rotatable=0;points=[[0,0.5],[1,0.5]];portConstraint=eastwest;" parent="0mOlbP7xLzRMstRWg_M5-202" vertex="1">
          <mxGeometry y="92" width="160" height="26" as="geometry" />
        </mxCell>
        <mxCell id="0mOlbP7xLzRMstRWg_M5-212" value="&lt;&lt;enumeration&gt;&gt;&#xa;State" style="swimlane;fontStyle=1;align=center;verticalAlign=top;childLayout=stackLayout;horizontal=1;startSize=40;horizontalStack=0;resizeParent=1;resizeParentMax=0;resizeLast=0;collapsible=1;marginBottom=0;labelBackgroundColor=none;fontSize=12;strokeWidth=1;fillColor=#ffffff;" parent="YpG11p54W12MGPFQJL24-1" vertex="1">
          <mxGeometry x="3160" y="360" width="160" height="196" as="geometry" />
        </mxCell>
        <mxCell id="0mOlbP7xLzRMstRWg_M5-213" value="RELEASED" style="text;strokeColor=none;fillColor=none;align=left;verticalAlign=top;spacingLeft=4;spacingRight=4;overflow=hidden;rotatable=0;points=[[0,0.5],[1,0.5]];portConstraint=eastwest;" parent="0mOlbP7xLzRMstRWg_M5-212" vertex="1">
          <mxGeometry y="40" width="160" height="26" as="geometry" />
        </mxCell>
        <mxCell id="0mOlbP7xLzRMstRWg_M5-214" value="DOING_INIT" style="text;strokeColor=none;fillColor=none;align=left;verticalAlign=top;spacingLeft=4;spacingRight=4;overflow=hidden;rotatable=0;points=[[0,0.5],[1,0.5]];portConstraint=eastwest;" parent="0mOlbP7xLzRMstRWg_M5-212" vertex="1">
          <mxGeometry y="66" width="160" height="26" as="geometry" />
        </mxCell>
        <mxCell id="0mOlbP7xLzRMstRWg_M5-215" value="INITED" style="text;strokeColor=none;fillColor=none;align=left;verticalAlign=top;spacingLeft=4;spacingRight=4;overflow=hidden;rotatable=0;points=[[0,0.5],[1,0.5]];portConstraint=eastwest;" parent="0mOlbP7xLzRMstRWg_M5-212" vertex="1">
          <mxGeometry y="92" width="160" height="26" as="geometry" />
        </mxCell>
        <mxCell id="0mOlbP7xLzRMstRWg_M5-216" value="DOING_REGISTER" style="text;strokeColor=none;fillColor=none;align=left;verticalAlign=top;spacingLeft=4;spacingRight=4;overflow=hidden;rotatable=0;points=[[0,0.5],[1,0.5]];portConstraint=eastwest;" parent="0mOlbP7xLzRMstRWg_M5-212" vertex="1">
          <mxGeometry y="118" width="160" height="26" as="geometry" />
        </mxCell>
        <mxCell id="0mOlbP7xLzRMstRWg_M5-217" value="DOING_VERIFY" style="text;strokeColor=none;fillColor=none;align=left;verticalAlign=top;spacingLeft=4;spacingRight=4;overflow=hidden;rotatable=0;points=[[0,0.5],[1,0.5]];portConstraint=eastwest;" parent="0mOlbP7xLzRMstRWg_M5-212" vertex="1">
          <mxGeometry y="144" width="160" height="26" as="geometry" />
        </mxCell>
        <mxCell id="0mOlbP7xLzRMstRWg_M5-218" value="DOING_UNREGISTER" style="text;strokeColor=none;fillColor=none;align=left;verticalAlign=top;spacingLeft=4;spacingRight=4;overflow=hidden;rotatable=0;points=[[0,0.5],[1,0.5]];portConstraint=eastwest;" parent="0mOlbP7xLzRMstRWg_M5-212" vertex="1">
          <mxGeometry y="170" width="160" height="26" as="geometry" />
        </mxCell>
        <mxCell id="0mOlbP7xLzRMstRWg_M5-219" value="&lt;&lt;interface&gt;&gt;&#xa;IFTBiometricAuthentication" style="swimlane;fontStyle=1;align=center;verticalAlign=top;childLayout=stackLayout;horizontal=1;startSize=40;horizontalStack=0;resizeParent=1;resizeParentMax=0;resizeLast=0;collapsible=1;marginBottom=0;labelBackgroundColor=none;fontSize=12;strokeWidth=1;fillColor=#ffffff;" parent="YpG11p54W12MGPFQJL24-1" vertex="1">
          <mxGeometry x="3400" y="600" width="360" height="144" as="geometry" />
        </mxCell>
        <mxCell id="0mOlbP7xLzRMstRWg_M5-227" value="+ prepareASK(callback): Unit" style="text;strokeColor=none;fillColor=none;align=left;verticalAlign=top;spacingLeft=4;spacingRight=4;overflow=hidden;rotatable=0;points=[[0,0.5],[1,0.5]];portConstraint=eastwest;labelBackgroundColor=none;fontSize=12;" parent="0mOlbP7xLzRMstRWg_M5-219" vertex="1">
          <mxGeometry y="40" width="360" height="26" as="geometry" />
        </mxCell>
        <mxCell id="0mOlbP7xLzRMstRWg_M5-228" value="+ prepareAuthKey(scene, uiCallback, canceller, callback): Unit" style="text;strokeColor=none;fillColor=none;align=left;verticalAlign=top;spacingLeft=4;spacingRight=4;overflow=hidden;rotatable=0;points=[[0,0.5],[1,0.5]];portConstraint=eastwest;labelBackgroundColor=none;fontSize=12;" parent="0mOlbP7xLzRMstRWg_M5-219" vertex="1">
          <mxGeometry y="66" width="360" height="26" as="geometry" />
        </mxCell>
        <mxCell id="0mOlbP7xLzRMstRWg_M5-229" value="+ requestAuthorize(scene, uiCallback, canceller, callback): Unit" style="text;strokeColor=none;fillColor=none;align=left;verticalAlign=top;spacingLeft=4;spacingRight=4;overflow=hidden;rotatable=0;points=[[0,0.5],[1,0.5]];portConstraint=eastwest;labelBackgroundColor=none;fontSize=12;" parent="0mOlbP7xLzRMstRWg_M5-219" vertex="1">
          <mxGeometry y="92" width="360" height="26" as="geometry" />
        </mxCell>
        <mxCell id="0mOlbP7xLzRMstRWg_M5-230" value="+ eliminateAuthKey(scene, callback): Unit" style="text;strokeColor=none;fillColor=none;align=left;verticalAlign=top;spacingLeft=4;spacingRight=4;overflow=hidden;rotatable=0;points=[[0,0.5],[1,0.5]];portConstraint=eastwest;labelBackgroundColor=none;fontSize=12;" parent="0mOlbP7xLzRMstRWg_M5-219" vertex="1">
          <mxGeometry y="118" width="360" height="26" as="geometry" />
        </mxCell>
        <mxCell id="0mOlbP7xLzRMstRWg_M5-234" value="FTBiometricManager" style="swimlane;fontStyle=1;align=center;verticalAlign=top;childLayout=stackLayout;horizontal=1;startSize=26;horizontalStack=0;resizeParent=1;resizeParentMax=0;resizeLast=0;collapsible=1;marginBottom=0;labelBackgroundColor=none;fontSize=12;strokeWidth=1;fillColor=#ffffff;" parent="YpG11p54W12MGPFQJL24-1" vertex="1">
          <mxGeometry x="3400" y="800" width="160" height="34" as="geometry" />
        </mxCell>
        <mxCell id="0mOlbP7xLzRMstRWg_M5-242" value="FTSoterManager" style="swimlane;fontStyle=1;align=center;verticalAlign=top;childLayout=stackLayout;horizontal=1;startSize=26;horizontalStack=0;resizeParent=1;resizeParentMax=0;resizeLast=0;collapsible=1;marginBottom=0;labelBackgroundColor=none;fontSize=12;strokeWidth=1;fillColor=#ffffff;" parent="YpG11p54W12MGPFQJL24-1" vertex="1">
          <mxGeometry x="3600" y="800" width="160" height="34" as="geometry" />
        </mxCell>
        <mxCell id="0mOlbP7xLzRMstRWg_M5-250" value="" style="endArrow=block;dashed=1;endFill=0;endSize=12;html=1;labelBackgroundColor=#ffffff;fontSize=12;" parent="YpG11p54W12MGPFQJL24-1" source="0mOlbP7xLzRMstRWg_M5-234" target="0mOlbP7xLzRMstRWg_M5-219" edge="1">
          <mxGeometry width="160" relative="1" as="geometry">
            <mxPoint x="3160" y="810" as="sourcePoint" />
            <mxPoint x="3320" y="810" as="targetPoint" />
          </mxGeometry>
        </mxCell>
        <mxCell id="0mOlbP7xLzRMstRWg_M5-251" value="" style="endArrow=block;dashed=1;endFill=0;endSize=12;html=1;labelBackgroundColor=#ffffff;fontSize=12;" parent="YpG11p54W12MGPFQJL24-1" source="0mOlbP7xLzRMstRWg_M5-242" target="0mOlbP7xLzRMstRWg_M5-219" edge="1">
          <mxGeometry width="160" relative="1" as="geometry">
            <mxPoint x="3160" y="810" as="sourcePoint" />
            <mxPoint x="3320" y="810" as="targetPoint" />
          </mxGeometry>
        </mxCell>
        <mxCell id="0mOlbP7xLzRMstRWg_M5-252" value="FingerprintManagerCompat" style="swimlane;fontStyle=1;align=center;verticalAlign=top;childLayout=stackLayout;horizontal=1;startSize=26;horizontalStack=0;resizeParent=1;resizeParentMax=0;resizeLast=0;collapsible=1;marginBottom=0;labelBackgroundColor=none;fontSize=12;strokeWidth=1;fillColor=#ffffff;" parent="YpG11p54W12MGPFQJL24-1" vertex="1">
          <mxGeometry x="3040" y="760" width="280" height="130" as="geometry" />
        </mxCell>
        <mxCell id="0mOlbP7xLzRMstRWg_M5-253" value="+ from(Context): FingerprintManagerCompat" style="text;strokeColor=none;fillColor=none;align=left;verticalAlign=top;spacingLeft=4;spacingRight=4;overflow=hidden;rotatable=0;points=[[0,0.5],[1,0.5]];portConstraint=eastwest;labelBackgroundColor=none;fontSize=12;fontStyle=4" parent="0mOlbP7xLzRMstRWg_M5-252" vertex="1">
          <mxGeometry y="26" width="280" height="26" as="geometry" />
        </mxCell>
        <mxCell id="0mOlbP7xLzRMstRWg_M5-254" value="+ hasEnrolledFingerprints(): Boolean" style="text;strokeColor=none;fillColor=none;align=left;verticalAlign=top;spacingLeft=4;spacingRight=4;overflow=hidden;rotatable=0;points=[[0,0.5],[1,0.5]];portConstraint=eastwest;labelBackgroundColor=none;fontSize=12;fontStyle=0" parent="0mOlbP7xLzRMstRWg_M5-252" vertex="1">
          <mxGeometry y="52" width="280" height="26" as="geometry" />
        </mxCell>
        <mxCell id="0mOlbP7xLzRMstRWg_M5-255" value="+ isHardwareDetected(): Boolean" style="text;strokeColor=none;fillColor=none;align=left;verticalAlign=top;spacingLeft=4;spacingRight=4;overflow=hidden;rotatable=0;points=[[0,0.5],[1,0.5]];portConstraint=eastwest;labelBackgroundColor=none;fontSize=12;fontStyle=0" parent="0mOlbP7xLzRMstRWg_M5-252" vertex="1">
          <mxGeometry y="78" width="280" height="26" as="geometry" />
        </mxCell>
        <mxCell id="0mOlbP7xLzRMstRWg_M5-256" value="+ authenticate(canceller, callback): Boolean" style="text;strokeColor=none;fillColor=none;align=left;verticalAlign=top;spacingLeft=4;spacingRight=4;overflow=hidden;rotatable=0;points=[[0,0.5],[1,0.5]];portConstraint=eastwest;labelBackgroundColor=none;fontSize=12;fontStyle=0" parent="0mOlbP7xLzRMstRWg_M5-252" vertex="1">
          <mxGeometry y="104" width="280" height="26" as="geometry" />
        </mxCell>
        <mxCell id="0mOlbP7xLzRMstRWg_M5-257" value="" style="endArrow=diamondThin;endFill=0;endSize=24;html=1;labelBackgroundColor=#ffffff;fontSize=12;" parent="YpG11p54W12MGPFQJL24-1" source="0mOlbP7xLzRMstRWg_M5-219" target="0mOlbP7xLzRMstRWg_M5-197" edge="1">
          <mxGeometry width="160" relative="1" as="geometry">
            <mxPoint x="3560" y="440" as="sourcePoint" />
            <mxPoint x="3360" y="390" as="targetPoint" />
          </mxGeometry>
        </mxCell>
        <mxCell id="0mOlbP7xLzRMstRWg_M5-259" value="" style="endArrow=open;startArrow=circlePlus;endFill=0;startFill=0;endSize=8;html=1;labelBackgroundColor=#ffffff;fontSize=12;" parent="YpG11p54W12MGPFQJL24-1" source="0mOlbP7xLzRMstRWg_M5-197" target="0mOlbP7xLzRMstRWg_M5-202" edge="1">
          <mxGeometry width="160" relative="1" as="geometry">
            <mxPoint x="3190" y="420" as="sourcePoint" />
            <mxPoint x="3350" y="420" as="targetPoint" />
          </mxGeometry>
        </mxCell>
        <mxCell id="0mOlbP7xLzRMstRWg_M5-260" value="" style="endArrow=open;startArrow=circlePlus;endFill=0;startFill=0;endSize=8;html=1;labelBackgroundColor=#ffffff;fontSize=12;" parent="YpG11p54W12MGPFQJL24-1" source="0mOlbP7xLzRMstRWg_M5-197" target="0mOlbP7xLzRMstRWg_M5-212" edge="1">
          <mxGeometry width="160" relative="1" as="geometry">
            <mxPoint x="3190" y="420" as="sourcePoint" />
            <mxPoint x="3350" y="420" as="targetPoint" />
          </mxGeometry>
        </mxCell>
        <mxCell id="0mOlbP7xLzRMstRWg_M5-263" value="SoterWrapperApi" style="swimlane;fontStyle=1;align=center;verticalAlign=top;childLayout=stackLayout;horizontal=1;startSize=26;horizontalStack=0;resizeParent=1;resizeParentMax=0;resizeLast=0;collapsible=1;marginBottom=0;labelBackgroundColor=none;fontSize=12;strokeWidth=1;fillColor=#ffffff;" parent="YpG11p54W12MGPFQJL24-1" vertex="1">
          <mxGeometry x="3840" y="760" width="280" height="208" as="geometry" />
        </mxCell>
        <mxCell id="0mOlbP7xLzRMstRWg_M5-264" value="+ init(Context, callback, param): Unit" style="text;strokeColor=none;fillColor=none;align=left;verticalAlign=top;spacingLeft=4;spacingRight=4;overflow=hidden;rotatable=0;points=[[0,0.5],[1,0.5]];portConstraint=eastwest;labelBackgroundColor=none;fontSize=12;fontStyle=4" parent="0mOlbP7xLzRMstRWg_M5-263" vertex="1">
          <mxGeometry y="26" width="280" height="26" as="geometry" />
        </mxCell>
        <mxCell id="0mOlbP7xLzRMstRWg_M5-271" value="+ isSupportSoter(): Boolean" style="text;strokeColor=none;fillColor=none;align=left;verticalAlign=top;spacingLeft=4;spacingRight=4;overflow=hidden;rotatable=0;points=[[0,0.5],[1,0.5]];portConstraint=eastwest;labelBackgroundColor=none;fontSize=12;fontStyle=4" parent="0mOlbP7xLzRMstRWg_M5-263" vertex="1">
          <mxGeometry y="52" width="280" height="26" as="geometry" />
        </mxCell>
        <mxCell id="0mOlbP7xLzRMstRWg_M5-272" value="+ isInitialized(): Boolean" style="text;strokeColor=none;fillColor=none;align=left;verticalAlign=top;spacingLeft=4;spacingRight=4;overflow=hidden;rotatable=0;points=[[0,0.5],[1,0.5]];portConstraint=eastwest;labelBackgroundColor=none;fontSize=12;fontStyle=4" parent="0mOlbP7xLzRMstRWg_M5-263" vertex="1">
          <mxGeometry y="78" width="280" height="26" as="geometry" />
        </mxCell>
        <mxCell id="0mOlbP7xLzRMstRWg_M5-265" value="+ prepareAppSecureKey(callback, uploader): Unit" style="text;strokeColor=none;fillColor=none;align=left;verticalAlign=top;spacingLeft=4;spacingRight=4;overflow=hidden;rotatable=0;points=[[0,0.5],[1,0.5]];portConstraint=eastwest;labelBackgroundColor=none;fontSize=12;fontStyle=4" parent="0mOlbP7xLzRMstRWg_M5-263" vertex="1">
          <mxGeometry y="104" width="280" height="26" as="geometry" />
        </mxCell>
        <mxCell id="0mOlbP7xLzRMstRWg_M5-266" value="+ prepareAuthKey(callback, uploader): Unit" style="text;strokeColor=none;fillColor=none;align=left;verticalAlign=top;spacingLeft=4;spacingRight=4;overflow=hidden;rotatable=0;points=[[0,0.5],[1,0.5]];portConstraint=eastwest;labelBackgroundColor=none;fontSize=12;fontStyle=4" parent="0mOlbP7xLzRMstRWg_M5-263" vertex="1">
          <mxGeometry y="130" width="280" height="26" as="geometry" />
        </mxCell>
        <mxCell id="0mOlbP7xLzRMstRWg_M5-267" value="+ requestAuthorizeAndSign(callback, param): Unit" style="text;strokeColor=none;fillColor=none;align=left;verticalAlign=top;spacingLeft=4;spacingRight=4;overflow=hidden;rotatable=0;points=[[0,0.5],[1,0.5]];portConstraint=eastwest;labelBackgroundColor=none;fontSize=12;fontStyle=4" parent="0mOlbP7xLzRMstRWg_M5-263" vertex="1">
          <mxGeometry y="156" width="280" height="26" as="geometry" />
        </mxCell>
        <mxCell id="0mOlbP7xLzRMstRWg_M5-273" value="+ removeAuthKeyByScene(scene): Unit" style="text;strokeColor=none;fillColor=none;align=left;verticalAlign=top;spacingLeft=4;spacingRight=4;overflow=hidden;rotatable=0;points=[[0,0.5],[1,0.5]];portConstraint=eastwest;labelBackgroundColor=none;fontSize=12;fontStyle=4" parent="0mOlbP7xLzRMstRWg_M5-263" vertex="1">
          <mxGeometry y="182" width="280" height="26" as="geometry" />
        </mxCell>
        <mxCell id="0mOlbP7xLzRMstRWg_M5-268" value="" style="endArrow=open;endSize=12;dashed=1;html=1;labelBackgroundColor=#ffffff;fontSize=12;entryX=0.75;entryY=0;entryDx=0;entryDy=0;" parent="YpG11p54W12MGPFQJL24-1" source="0mOlbP7xLzRMstRWg_M5-197" target="0mOlbP7xLzRMstRWg_M5-263" edge="1">
          <mxGeometry width="160" relative="1" as="geometry">
            <mxPoint x="3820" y="520" as="sourcePoint" />
            <mxPoint x="3980" y="520" as="targetPoint" />
          </mxGeometry>
        </mxCell>
        <mxCell id="0mOlbP7xLzRMstRWg_M5-269" value="" style="endArrow=open;endSize=12;dashed=1;html=1;labelBackgroundColor=#ffffff;fontSize=12;" parent="YpG11p54W12MGPFQJL24-1" source="0mOlbP7xLzRMstRWg_M5-242" target="0mOlbP7xLzRMstRWg_M5-263" edge="1">
          <mxGeometry width="160" relative="1" as="geometry">
            <mxPoint x="3530" y="950" as="sourcePoint" />
            <mxPoint x="3690" y="950" as="targetPoint" />
          </mxGeometry>
        </mxCell>
        <mxCell id="0mOlbP7xLzRMstRWg_M5-270" value="" style="endArrow=open;endSize=12;dashed=1;html=1;labelBackgroundColor=#ffffff;fontSize=12;" parent="YpG11p54W12MGPFQJL24-1" source="0mOlbP7xLzRMstRWg_M5-234" target="0mOlbP7xLzRMstRWg_M5-252" edge="1">
          <mxGeometry width="160" relative="1" as="geometry">
            <mxPoint x="3530" y="950" as="sourcePoint" />
            <mxPoint x="3690" y="950" as="targetPoint" />
          </mxGeometry>
        </mxCell>
        <mxCell id="0mOlbP7xLzRMstRWg_M5-279" value="&lt;font style=&quot;font-size: 16px&quot;&gt;java.security&lt;/font&gt;" style="html=1;dropTarget=0;labelBackgroundColor=none;fontSize=12;strokeWidth=1;align=center;fillColor=none;verticalAlign=top;fontStyle=1" parent="YpG11p54W12MGPFQJL24-1" vertex="1">
          <mxGeometry x="3040" y="920" width="280" height="120" as="geometry" />
        </mxCell>
        <mxCell id="0mOlbP7xLzRMstRWg_M5-280" value="" style="shape=module;jettyWidth=8;jettyHeight=4;" parent="0mOlbP7xLzRMstRWg_M5-279" vertex="1">
          <mxGeometry x="1" width="20" height="20" relative="1" as="geometry">
            <mxPoint x="-27" y="7" as="offset" />
          </mxGeometry>
        </mxCell>
        <mxCell id="0mOlbP7xLzRMstRWg_M5-281" value="KeyStore" style="swimlane;fontStyle=1;align=center;verticalAlign=top;childLayout=stackLayout;horizontal=1;startSize=26;horizontalStack=0;resizeParent=1;resizeParentMax=0;resizeLast=0;collapsible=1;marginBottom=0;labelBackgroundColor=none;fontSize=12;strokeWidth=1;fillColor=#ffffff;" parent="YpG11p54W12MGPFQJL24-1" vertex="1">
          <mxGeometry x="3060" y="960" width="110" height="30" as="geometry" />
        </mxCell>
        <mxCell id="0mOlbP7xLzRMstRWg_M5-286" value="KeyStore" style="swimlane;fontStyle=1;align=center;verticalAlign=top;childLayout=stackLayout;horizontal=1;startSize=26;horizontalStack=0;resizeParent=1;resizeParentMax=0;resizeLast=0;collapsible=1;marginBottom=0;labelBackgroundColor=none;fontSize=12;strokeWidth=1;fillColor=#ffffff;" parent="YpG11p54W12MGPFQJL24-1" vertex="1">
          <mxGeometry x="3190" y="960" width="110" height="30" as="geometry" />
        </mxCell>
        <mxCell id="0mOlbP7xLzRMstRWg_M5-287" value="KeyPairGenerator" style="swimlane;fontStyle=1;align=center;verticalAlign=top;childLayout=stackLayout;horizontal=1;startSize=26;horizontalStack=0;resizeParent=1;resizeParentMax=0;resizeLast=0;collapsible=1;marginBottom=0;labelBackgroundColor=none;fontSize=12;strokeWidth=1;fillColor=#ffffff;" parent="YpG11p54W12MGPFQJL24-1" vertex="1">
          <mxGeometry x="3060" y="1000" width="110" height="30" as="geometry" />
        </mxCell>
        <mxCell id="0mOlbP7xLzRMstRWg_M5-289" value="Signature" style="swimlane;fontStyle=1;align=center;verticalAlign=top;childLayout=stackLayout;horizontal=1;startSize=26;horizontalStack=0;resizeParent=1;resizeParentMax=0;resizeLast=0;collapsible=1;marginBottom=0;labelBackgroundColor=none;fontSize=12;strokeWidth=1;fillColor=#ffffff;" parent="YpG11p54W12MGPFQJL24-1" vertex="1">
          <mxGeometry x="3190" y="1000" width="110" height="30" as="geometry" />
        </mxCell>
        <mxCell id="0mOlbP7xLzRMstRWg_M5-290" value="" style="endArrow=open;endSize=12;dashed=1;html=1;labelBackgroundColor=#ffffff;fontSize=12;" parent="YpG11p54W12MGPFQJL24-1" source="0mOlbP7xLzRMstRWg_M5-234" target="0mOlbP7xLzRMstRWg_M5-279" edge="1">
          <mxGeometry width="160" relative="1" as="geometry">
            <mxPoint x="3530" y="950" as="sourcePoint" />
            <mxPoint x="3690" y="950" as="targetPoint" />
          </mxGeometry>
        </mxCell>
        <mxCell id="0mOlbP7xLzRMstRWg_M5-297" value="FTBiometricRecord" style="swimlane;fontStyle=1;align=center;verticalAlign=top;childLayout=stackLayout;horizontal=1;startSize=26;horizontalStack=0;resizeParent=1;resizeParentMax=0;resizeLast=0;collapsible=1;marginBottom=0;labelBackgroundColor=none;fontSize=12;strokeWidth=1;fillColor=none;" parent="YpG11p54W12MGPFQJL24-1" vertex="1">
          <mxGeometry x="4160" y="360" width="200" height="156" as="geometry" />
        </mxCell>
        <mxCell id="0mOlbP7xLzRMstRWg_M5-298" value="+ sceneId: Int" style="text;strokeColor=none;fillColor=none;align=left;verticalAlign=top;spacingLeft=4;spacingRight=4;overflow=hidden;rotatable=0;points=[[0,0.5],[1,0.5]];portConstraint=eastwest;" parent="0mOlbP7xLzRMstRWg_M5-297" vertex="1">
          <mxGeometry y="26" width="200" height="26" as="geometry" />
        </mxCell>
        <mxCell id="0mOlbP7xLzRMstRWg_M5-301" value="+ uid: Long" style="text;strokeColor=none;fillColor=none;align=left;verticalAlign=top;spacingLeft=4;spacingRight=4;overflow=hidden;rotatable=0;points=[[0,0.5],[1,0.5]];portConstraint=eastwest;" parent="0mOlbP7xLzRMstRWg_M5-297" vertex="1">
          <mxGeometry y="52" width="200" height="26" as="geometry" />
        </mxCell>
        <mxCell id="0mOlbP7xLzRMstRWg_M5-302" value="+ sceneName: String" style="text;strokeColor=none;fillColor=none;align=left;verticalAlign=top;spacingLeft=4;spacingRight=4;overflow=hidden;rotatable=0;points=[[0,0.5],[1,0.5]];portConstraint=eastwest;" parent="0mOlbP7xLzRMstRWg_M5-297" vertex="1">
          <mxGeometry y="78" width="200" height="26" as="geometry" />
        </mxCell>
        <mxCell id="0mOlbP7xLzRMstRWg_M5-303" value="+ enable: Boolean" style="text;strokeColor=none;fillColor=none;align=left;verticalAlign=top;spacingLeft=4;spacingRight=4;overflow=hidden;rotatable=0;points=[[0,0.5],[1,0.5]];portConstraint=eastwest;" parent="0mOlbP7xLzRMstRWg_M5-297" vertex="1">
          <mxGeometry y="104" width="200" height="26" as="geometry" />
        </mxCell>
        <mxCell id="0mOlbP7xLzRMstRWg_M5-304" value="+ fid: String" style="text;strokeColor=none;fillColor=none;align=left;verticalAlign=top;spacingLeft=4;spacingRight=4;overflow=hidden;rotatable=0;points=[[0,0.5],[1,0.5]];portConstraint=eastwest;" parent="0mOlbP7xLzRMstRWg_M5-297" vertex="1">
          <mxGeometry y="130" width="200" height="26" as="geometry" />
        </mxCell>
        <mxCell id="0mOlbP7xLzRMstRWg_M5-305" value="FTBiometricSecurityCounter" style="swimlane;fontStyle=1;align=center;verticalAlign=top;childLayout=stackLayout;horizontal=1;startSize=26;horizontalStack=0;resizeParent=1;resizeParentMax=0;resizeLast=0;collapsible=1;marginBottom=0;labelBackgroundColor=none;fontSize=12;strokeWidth=1;fillColor=#ffffff;" parent="YpG11p54W12MGPFQJL24-1" vertex="1">
          <mxGeometry x="3360" y="919" width="200" height="52" as="geometry" />
        </mxCell>
        <mxCell id="0mOlbP7xLzRMstRWg_M5-306" value="+ getSecurityCounter(): Int" style="text;strokeColor=none;fillColor=none;align=left;verticalAlign=top;spacingLeft=4;spacingRight=4;overflow=hidden;rotatable=0;points=[[0,0.5],[1,0.5]];portConstraint=eastwest;labelBackgroundColor=none;fontSize=12;fontStyle=4" parent="0mOlbP7xLzRMstRWg_M5-305" vertex="1">
          <mxGeometry y="26" width="200" height="26" as="geometry" />
        </mxCell>
        <mxCell id="0mOlbP7xLzRMstRWg_M5-310" value="" style="endArrow=open;endSize=12;dashed=1;html=1;labelBackgroundColor=#ffffff;fontSize=12;" parent="YpG11p54W12MGPFQJL24-1" source="0mOlbP7xLzRMstRWg_M5-234" target="0mOlbP7xLzRMstRWg_M5-305" edge="1">
          <mxGeometry width="160" relative="1" as="geometry">
            <mxPoint x="3530" y="950" as="sourcePoint" />
            <mxPoint x="3690" y="950" as="targetPoint" />
          </mxGeometry>
        </mxCell>
        <mxCell id="0mOlbP7xLzRMstRWg_M5-311" value="&lt;&lt;interface&gt;&gt;&#xa;FTBiometricRecordDao" style="swimlane;fontStyle=1;align=center;verticalAlign=top;childLayout=stackLayout;horizontal=1;startSize=40;horizontalStack=0;resizeParent=1;resizeParentMax=0;resizeLast=0;collapsible=1;marginBottom=0;labelBackgroundColor=none;fontSize=12;strokeWidth=1;fillColor=none;" parent="YpG11p54W12MGPFQJL24-1" vertex="1">
          <mxGeometry x="3840" y="360" width="280" height="144" as="geometry" />
        </mxCell>
        <mxCell id="0mOlbP7xLzRMstRWg_M5-312" value="+ insertRecord(FTBiometricRecord): Int" style="text;strokeColor=none;fillColor=none;align=left;verticalAlign=top;spacingLeft=4;spacingRight=4;overflow=hidden;rotatable=0;points=[[0,0.5],[1,0.5]];portConstraint=eastwest;" parent="0mOlbP7xLzRMstRWg_M5-311" vertex="1">
          <mxGeometry y="40" width="280" height="26" as="geometry" />
        </mxCell>
        <mxCell id="0mOlbP7xLzRMstRWg_M5-313" value="+ deleteRecord(FTBiometricRecord): Int" style="text;strokeColor=none;fillColor=none;align=left;verticalAlign=top;spacingLeft=4;spacingRight=4;overflow=hidden;rotatable=0;points=[[0,0.5],[1,0.5]];portConstraint=eastwest;" parent="0mOlbP7xLzRMstRWg_M5-311" vertex="1">
          <mxGeometry y="66" width="280" height="26" as="geometry" />
        </mxCell>
        <mxCell id="0mOlbP7xLzRMstRWg_M5-314" value="+ updateRecord(FTBiometricRecord): Int" style="text;strokeColor=none;fillColor=none;align=left;verticalAlign=top;spacingLeft=4;spacingRight=4;overflow=hidden;rotatable=0;points=[[0,0.5],[1,0.5]];portConstraint=eastwest;" parent="0mOlbP7xLzRMstRWg_M5-311" vertex="1">
          <mxGeometry y="92" width="280" height="26" as="geometry" />
        </mxCell>
        <mxCell id="0mOlbP7xLzRMstRWg_M5-315" value="+ findRecord(uid, sceneName): FTBiometricRecord?" style="text;strokeColor=none;fillColor=none;align=left;verticalAlign=top;spacingLeft=4;spacingRight=4;overflow=hidden;rotatable=0;points=[[0,0.5],[1,0.5]];portConstraint=eastwest;" parent="0mOlbP7xLzRMstRWg_M5-311" vertex="1">
          <mxGeometry y="118" width="280" height="26" as="geometry" />
        </mxCell>
        <mxCell id="0mOlbP7xLzRMstRWg_M5-318" value="" style="endArrow=open;endSize=12;dashed=1;html=1;labelBackgroundColor=#ffffff;fontSize=12;" parent="YpG11p54W12MGPFQJL24-1" source="0mOlbP7xLzRMstRWg_M5-311" target="0mOlbP7xLzRMstRWg_M5-297" edge="1">
          <mxGeometry width="160" relative="1" as="geometry">
            <mxPoint x="4010" y="580" as="sourcePoint" />
            <mxPoint x="4170" y="580" as="targetPoint" />
          </mxGeometry>
        </mxCell>
        <mxCell id="0mOlbP7xLzRMstRWg_M5-319" value="RoomDatabase" style="swimlane;fontStyle=1;align=center;verticalAlign=top;childLayout=stackLayout;horizontal=1;startSize=26;horizontalStack=0;resizeParent=1;resizeParentMax=0;resizeLast=0;collapsible=1;marginBottom=0;labelBackgroundColor=none;fontSize=12;strokeWidth=1;fillColor=none;" parent="YpG11p54W12MGPFQJL24-1" vertex="1">
          <mxGeometry x="4160" y="200" width="160" height="34" as="geometry" />
        </mxCell>
        <mxCell id="0mOlbP7xLzRMstRWg_M5-321" value="" style="endArrow=block;endSize=16;endFill=0;html=1;labelBackgroundColor=#ffffff;fontSize=12;" parent="YpG11p54W12MGPFQJL24-1" source="0mOlbP7xLzRMstRWg_M5-291" target="0mOlbP7xLzRMstRWg_M5-319" edge="1">
          <mxGeometry width="160" relative="1" as="geometry">
            <mxPoint x="4340" y="430" as="sourcePoint" />
            <mxPoint x="4500" y="430" as="targetPoint" />
          </mxGeometry>
        </mxCell>
        <mxCell id="0mOlbP7xLzRMstRWg_M5-322" value="" style="endArrow=diamondThin;endFill=0;endSize=24;html=1;labelBackgroundColor=#ffffff;fontSize=12;" parent="YpG11p54W12MGPFQJL24-1" source="0mOlbP7xLzRMstRWg_M5-311" target="0mOlbP7xLzRMstRWg_M5-291" edge="1">
          <mxGeometry width="160" relative="1" as="geometry">
            <mxPoint x="4230" y="490" as="sourcePoint" />
            <mxPoint x="4390" y="490" as="targetPoint" />
          </mxGeometry>
        </mxCell>
        <mxCell id="0mOlbP7xLzRMstRWg_M5-325" value="" style="endArrow=open;endSize=12;dashed=1;html=1;labelBackgroundColor=#ffffff;fontSize=12;entryX=0;entryY=0.5;entryDx=0;entryDy=0;exitX=1;exitY=0;exitDx=0;exitDy=0;" parent="YpG11p54W12MGPFQJL24-1" source="0mOlbP7xLzRMstRWg_M5-219" target="0mOlbP7xLzRMstRWg_M5-293" edge="1">
          <mxGeometry width="160" relative="1" as="geometry">
            <mxPoint x="3820" y="520" as="sourcePoint" />
            <mxPoint x="3980" y="520" as="targetPoint" />
          </mxGeometry>
        </mxCell>
        <mxCell id="0mOlbP7xLzRMstRWg_M5-336" value="&lt;&lt;interface&gt;&gt;&#xa;ISoterNetBaseWrapper" style="swimlane;fontStyle=1;align=center;verticalAlign=top;childLayout=stackLayout;horizontal=1;startSize=40;horizontalStack=0;resizeParent=1;resizeParentMax=0;resizeLast=0;collapsible=1;marginBottom=0;labelBackgroundColor=none;fontSize=12;strokeWidth=1;fillColor=none;" parent="YpG11p54W12MGPFQJL24-1" vertex="1">
          <mxGeometry x="3600" y="919" width="160" height="118" as="geometry" />
        </mxCell>
        <mxCell id="0mOlbP7xLzRMstRWg_M5-337" value="+ setRequest(Req): Unit" style="text;strokeColor=none;fillColor=none;align=left;verticalAlign=top;spacingLeft=4;spacingRight=4;overflow=hidden;rotatable=0;points=[[0,0.5],[1,0.5]];portConstraint=eastwest;" parent="0mOlbP7xLzRMstRWg_M5-336" vertex="1">
          <mxGeometry y="40" width="160" height="26" as="geometry" />
        </mxCell>
        <mxCell id="0mOlbP7xLzRMstRWg_M5-344" value="+ execute(): Unit" style="text;strokeColor=none;fillColor=none;align=left;verticalAlign=top;spacingLeft=4;spacingRight=4;overflow=hidden;rotatable=0;points=[[0,0.5],[1,0.5]];portConstraint=eastwest;" parent="0mOlbP7xLzRMstRWg_M5-336" vertex="1">
          <mxGeometry y="66" width="160" height="26" as="geometry" />
        </mxCell>
        <mxCell id="0mOlbP7xLzRMstRWg_M5-345" value="+ setCallback(callback): Unit" style="text;strokeColor=none;fillColor=none;align=left;verticalAlign=top;spacingLeft=4;spacingRight=4;overflow=hidden;rotatable=0;points=[[0,0.5],[1,0.5]];portConstraint=eastwest;" parent="0mOlbP7xLzRMstRWg_M5-336" vertex="1">
          <mxGeometry y="92" width="160" height="26" as="geometry" />
        </mxCell>
        <mxCell id="0mOlbP7xLzRMstRWg_M5-341" value="" style="endArrow=open;endSize=12;dashed=1;html=1;labelBackgroundColor=#ffffff;fontSize=12;" parent="YpG11p54W12MGPFQJL24-1" source="0mOlbP7xLzRMstRWg_M5-242" target="0mOlbP7xLzRMstRWg_M5-336" edge="1">
          <mxGeometry width="160" relative="1" as="geometry">
            <mxPoint x="3530" y="950" as="sourcePoint" />
            <mxPoint x="3690" y="950" as="targetPoint" />
          </mxGeometry>
        </mxCell>
        <mxCell id="0mOlbP7xLzRMstRWg_M5-342" value="&lt;&lt;interface&gt;&gt;&#xa;SoterProcessCallback" style="swimlane;fontStyle=1;align=center;verticalAlign=top;childLayout=stackLayout;horizontal=1;startSize=40;horizontalStack=0;resizeParent=1;resizeParentMax=0;resizeLast=0;collapsible=1;marginBottom=0;labelBackgroundColor=none;fontSize=12;strokeWidth=1;fillColor=none;" parent="YpG11p54W12MGPFQJL24-1" vertex="1">
          <mxGeometry x="3840" y="1000" width="160" height="66" as="geometry" />
        </mxCell>
        <mxCell id="0mOlbP7xLzRMstRWg_M5-343" value="+ onResult(Result): Unit" style="text;strokeColor=none;fillColor=none;align=left;verticalAlign=top;spacingLeft=4;spacingRight=4;overflow=hidden;rotatable=0;points=[[0,0.5],[1,0.5]];portConstraint=eastwest;" parent="0mOlbP7xLzRMstRWg_M5-342" vertex="1">
          <mxGeometry y="40" width="160" height="26" as="geometry" />
        </mxCell>
        <mxCell id="0mOlbP7xLzRMstRWg_M5-346" value="" style="endArrow=open;endSize=12;dashed=1;html=1;labelBackgroundColor=#ffffff;fontSize=12;" parent="YpG11p54W12MGPFQJL24-1" source="0mOlbP7xLzRMstRWg_M5-242" target="0mOlbP7xLzRMstRWg_M5-342" edge="1">
          <mxGeometry width="160" relative="1" as="geometry">
            <mxPoint x="3530" y="950" as="sourcePoint" />
            <mxPoint x="3690" y="950" as="targetPoint" />
          </mxGeometry>
        </mxCell>
        <mxCell id="0mOlbP7xLzRMstRWg_M5-347" value="" style="endArrow=open;endSize=12;dashed=1;html=1;labelBackgroundColor=#ffffff;fontSize=12;" parent="YpG11p54W12MGPFQJL24-1" source="0mOlbP7xLzRMstRWg_M5-263" target="0mOlbP7xLzRMstRWg_M5-336" edge="1">
          <mxGeometry width="160" relative="1" as="geometry">
            <mxPoint x="3620" y="1090" as="sourcePoint" />
            <mxPoint x="3780" y="1090" as="targetPoint" />
          </mxGeometry>
        </mxCell>
        <mxCell id="0mOlbP7xLzRMstRWg_M5-357" value="&lt;font color=&quot;#007fff&quot; size=&quot;1&quot;&gt;&lt;i style=&quot;font-size: 16px&quot;&gt;DataBase&lt;/i&gt;&lt;/font&gt;" style="text;html=1;strokeColor=none;fillColor=none;align=center;verticalAlign=middle;whiteSpace=wrap;rounded=0;dashed=1;labelBackgroundColor=none;fontSize=12;" parent="YpG11p54W12MGPFQJL24-1" vertex="1">
          <mxGeometry x="4280" y="170" width="90" height="20" as="geometry" />
        </mxCell>
        <mxCell id="0mOlbP7xLzRMstRWg_M5-360" value="&lt;font color=&quot;#007fff&quot;&gt;&lt;span style=&quot;font-size: 16px&quot;&gt;&lt;i&gt;Appearance&amp;nbsp;&lt;/i&gt;&lt;/span&gt;&lt;/font&gt;" style="text;html=1;strokeColor=none;fillColor=none;align=center;verticalAlign=middle;whiteSpace=wrap;rounded=0;dashed=1;labelBackgroundColor=none;fontSize=12;" parent="YpG11p54W12MGPFQJL24-1" vertex="1">
          <mxGeometry x="3150" y="170" width="120" height="20" as="geometry" />
        </mxCell>
        <mxCell id="0mOlbP7xLzRMstRWg_M5-362" value="&lt;font color=&quot;#007fff&quot;&gt;&lt;span style=&quot;font-size: 16px&quot;&gt;&lt;i&gt;Routine Plan&lt;/i&gt;&lt;/span&gt;&lt;/font&gt;" style="text;html=1;strokeColor=none;fillColor=none;align=center;verticalAlign=middle;whiteSpace=wrap;rounded=0;dashed=1;labelBackgroundColor=none;fontSize=12;" parent="YpG11p54W12MGPFQJL24-1" vertex="1">
          <mxGeometry x="3250" y="730" width="120" height="20" as="geometry" />
        </mxCell>
        <mxCell id="0mOlbP7xLzRMstRWg_M5-364" value="" style="rounded=0;whiteSpace=wrap;html=1;labelBackgroundColor=none;fontSize=12;strokeWidth=1;align=center;fontColor=#333333;dashed=1;fillColor=none;strokeColor=#007FFF;" parent="YpG11p54W12MGPFQJL24-1" vertex="1">
          <mxGeometry x="3590" y="750" width="540" height="330" as="geometry" />
        </mxCell>
        <mxCell id="0mOlbP7xLzRMstRWg_M5-366" value="&lt;font color=&quot;#007fff&quot;&gt;&lt;span style=&quot;font-size: 16px&quot;&gt;&lt;i&gt;Soter Plan&lt;/i&gt;&lt;/span&gt;&lt;/font&gt;" style="text;html=1;strokeColor=none;fillColor=none;align=center;verticalAlign=middle;whiteSpace=wrap;rounded=0;dashed=1;labelBackgroundColor=none;fontSize=12;" parent="YpG11p54W12MGPFQJL24-1" vertex="1">
          <mxGeometry x="3800" y="730" width="120" height="20" as="geometry" />
        </mxCell>
      </root>
    </mxGraphModel>
  </diagram>
</mxfile>
